<svg version="1.1" id="icons" xmlns="http://www.w3.org/2000/svg" x="0" y="0" viewBox="0 0 64 64" style="enable-background:new 0 0 64 64" xml:space="preserve"><style>.st0{display:none}.st1{fill:#36d7b7}.st1,.st2,.st3{display:inline}.st2{fill:none;stroke:#414042;stroke-miterlimit:10}.st3{fill:#f5ab35}.st4{fill:#f7bc5d}.st4,.st5{display:inline}.st6{fill:#414042}.st7{fill:#36d7b7}.st10,.st9{display:inline;fill:#f1f2f2}.st10{fill:none;stroke:#414042;stroke-linecap:round;stroke-miterlimit:10}.st11,.st12{display:inline;fill:#414042}.st12{fill:#e6e7e8}.st14{fill:#d1d3d4}.st14,.st15{display:inline}.st15,.st16{fill:#fff}.st17{fill:#f5ab35}.st18{fill:#f9cd86}.st19{fill:none;stroke:#414042;stroke-miterlimit:10}.st20{fill:#29a189}.st21{fill:#f7bc5d}.st22{display:inline;fill:#29a189}.st23{fill:none;stroke:#414042;stroke-linecap:round;stroke-miterlimit:10}.st24{fill:#e6e7e8}.st27{fill:#5edfc5}.st28,.st29{fill:none;stroke-miterlimit:10}.st28{display:inline;stroke:#414042;stroke-dasharray:1}.st29{stroke:#36d7b7}.st32{display:inline;fill:#bcbec0}.st33{fill:none;stroke:#f5ab35;stroke-miterlimit:10}.st33,.st34,.st35{display:inline}.st34{fill:none;stroke:#36d7b7;stroke-miterlimit:10}.st35{fill:#5edfc5}.st38{fill:none;stroke:#fff;stroke-miterlimit:10}.st39,.st42{display:inline}.st39{fill:none;stroke:#fff;stroke-miterlimit:10}.st42{fill:#86e7d4}</style><g id="XMLID_175_"><path id="XMLID_1355_" class="st7" d="M46.4 52v-2c0-7.9-6.5-14.4-14.4-14.4S17.6 42.1 17.6 50v2h28.8z"/><path id="XMLID_1368_" class="st19" d="M25.1 46.8V52"/><path id="XMLID_1367_" class="st19" d="M39.7 46.8V52"/><path id="XMLID_193_" class="st16" d="M21.9 30.6h-.5c-.7 0-1.2-.5-1.2-1.2v-1.9c0-.7.5-1.2 1.2-1.2h.5v4.3z"/><path id="XMLID_192_" class="st16" d="M41.3 30.6h.5c.7 0 1.2-.5 1.2-1.2v-1.9c0-.7-.5-1.2-1.2-1.2h-.5v4.3z"/><path id="XMLID_191_" class="st23" d="M21.9 30.6h-.5c-.7 0-1.2-.5-1.2-1.2v-1.9c0-.7.5-1.2 1.2-1.2h.5v4.3z"/><path id="XMLID_190_" class="st23" d="M41.3 30.6h.5c.7 0 1.2-.5 1.2-1.2v-1.9c0-.7-.5-1.2-1.2-1.2h-.5v4.3z"/><path id="XMLID_189_" class="st16" d="M21.9 22.6v8.2c0 5.3 4.3 9.7 9.7 9.7 5.3 0 9.7-4.3 9.7-9.7V23c-1.1-6.8-7.3-8.8-10.3-8.7-2.8.1-8.1 3-9.1 8.3z"/><path id="XMLID_188_" class="st17" d="M41.3 25.5s-4.9-5.8-13-6.7L22 25.7s-1.6-10 9.3-11.4c-.1 0 10.1-.3 10 11.2z"/><path id="XMLID_187_" class="st19" d="M21.9 25.7s4-2.3 6.3-6.9c0 0 9.8 1.7 13 6.7"/><path id="XMLID_186_" class="st19" d="M41.3 24c0-5.3-4.3-9.7-9.7-9.7-5.3 0-9.7 4.3-9.7 9.7v6.7c0 5.3 4.3 9.7 9.7 9.7 5.3 0 9.7-4.3 9.7-9.7V24z"/><path id="XMLID_185_" class="st17" d="M40.8 12s-6.8 6.8-12.9 3.8c0 0-1.5 5.8 6.8 5.2-.1.1 8.4-.2 6.1-9z"/><path id="XMLID_184_" class="st23" d="M27.9 17.8c.3 1.6 1.8 3.6 6.8 3.3 0 0 8.5-.2 6.1-9 0 0-2.5 2.4-5.7 3.8"/></g></svg>