<?xml version="1.0" standalone="no"?>
<!DOCTYPE svg PUBLIC "-//W3C//DTD SVG 20010904//EN"
 "http://www.w3.org/TR/2001/REC-SVG-20010904/DTD/svg10.dtd">
<svg version="1.0" xmlns="http://www.w3.org/2000/svg"
 width="512.000000pt" height="512.000000pt" viewBox="0 0 512.000000 512.000000"
 preserveAspectRatio="xMidYMid meet">

<g transform="translate(0.000000,512.000000) scale(0.100000,-0.100000)"
fill="#000000" stroke="none">
<path d="M2640 5027 c-44 -14 -134 -102 -145 -142 -4 -17 -53 -241 -109 -499
l-101 -469 -112 -27 c-246 -61 -467 -204 -613 -399 -59 -77 -140 -232 -165
-312 -17 -55 -19 -57 -58 -62 -44 -6 -80 -29 -111 -71 -19 -25 -21 -42 -21
-166 0 -124 2 -141 21 -166 39 -54 70 -68 147 -72 l73 -4 30 -486 c28 -443 29
-488 15 -497 -43 -27 -107 -104 -119 -141 -16 -56 -17 -571 0 -626 21 -71 91
-134 179 -161 13 -4 17 -42 28 -223 7 -121 17 -237 24 -259 15 -54 99 -137
153 -153 31 -9 234 -12 804 -12 570 0 773 3 804 12 54 16 138 99 153 153 7 22
17 138 24 259 11 181 15 219 28 223 88 27 158 90 179 161 17 55 16 570 0 626
-12 38 -80 120 -119 142 -13 8 -12 59 15 496 l30 486 73 4 c77 4 108 18 147
72 19 25 21 42 21 166 0 124 -2 141 -21 166 -31 42 -67 65 -111 71 -38 5 -41
7 -57 59 -26 82 -109 241 -165 315 -61 80 -169 183 -249 238 -134 91 -320 164
-454 178 -31 3 -61 9 -68 13 -8 5 7 94 56 323 l68 317 383 0 383 0 0 240 0
240 -502 -1 c-336 -1 -515 -5 -538 -12z m880 -227 l0 -80 -370 0 c-203 0 -370
-2 -370 -5 0 -5 -143 -671 -162 -752 l-10 -43 -75 0 -75 0 6 45 c4 25 47 230
96 457 81 380 90 414 115 435 l26 23 410 0 409 0 0 -80z m-667 -1055 c262 -46
475 -187 619 -410 43 -65 98 -181 98 -205 0 -7 -324 -10 -1011 -10 l-1011 0 7
28 c4 15 21 56 39 92 132 269 373 452 665 504 109 20 483 21 594 1z m907 -865
l0 -80 -1200 0 -1200 0 0 80 0 80 1200 0 1200 0 0 -80z m-250 -262 c1 -43 -51
-893 -56 -915 -4 -20 -11 -23 -53 -23 l-48 0 -7 45 c-16 117 -104 273 -211
373 -365 342 -990 278 -1262 -130 -47 -72 -103 -211 -103 -260 0 -27 -2 -28
-50 -28 -43 0 -50 3 -54 23 -5 22 -57 872 -56 915 l0 22 950 0 950 0 0 -22z
m-765 -483 c172 -46 326 -166 394 -308 22 -45 43 -97 46 -114 l7 -33 -174 0
-173 0 -150 -150 -150 -150 -134 150 -134 150 -174 0 -175 0 7 33 c4 17 22 65
40 105 75 160 246 286 445 328 81 17 242 11 325 -11z m-255 -933 l285 -317
-590 -3 c-405 -1 -598 1 -616 9 -45 18 -49 42 -49 309 0 260 4 289 44 308 13
7 139 11 331 11 l310 0 285 -317z m1063 307 c14 -6 30 -22 36 -36 15 -33 15
-513 0 -546 -20 -44 -44 -47 -327 -46 l-267 0 -125 141 c-69 77 -145 162 -169
190 l-44 50 129 129 129 129 307 0 c204 0 315 -4 331 -11z m-163 -826 c0 -92
-22 -371 -31 -394 -6 -15 -22 -31 -35 -38 -35 -16 -1493 -16 -1528 0 -13 7
-29 23 -35 38 -9 23 -31 302 -31 394 l0 37 830 0 830 0 0 -37z"/>
</g>
</svg>
