<?xml version="1.0" encoding="utf-8"?>
<!-- Generator: Adobe Illustrator 24.3.0, SVG Export Plug-In . SVG Version: 6.00 Build 0)  -->
<svg version="1.1" id="Layer_1" xmlns="http://www.w3.org/2000/svg" xmlns:xlink="http://www.w3.org/1999/xlink" x="0px" y="0px"
	 viewBox="0 0 300 300" enable-background="new 0 0 300 300" xml:space="preserve">
<g>
	<g>
		<g>
			<polygon fill="#9AE8CE" points="73.363,121.482 82.434,219.749 217.568,219.749 226.639,121.482 			"/>
		</g>
		<g>
			<path fill="#AA6148" d="M168.473,189.75c-14.428,14.43-34.401,17.857-44.605,7.656c-10.194-10.203-6.773-30.172,7.662-44.601
				c14.43-14.432,34.395-17.858,44.598-7.658C186.331,155.351,182.909,175.32,168.473,189.75z"/>
		</g>
		<g>
			<path fill="#BC715C" d="M137.01,158.286c13.11-13.112,30.764-17.101,41.54-10.078c-0.707-1.086-1.488-2.126-2.423-3.061
				c-10.203-10.2-30.168-6.773-44.598,7.658c-14.436,14.428-17.857,34.398-7.662,44.601c0.935,0.935,1.975,1.714,3.062,2.423
				C119.911,189.052,123.894,171.395,137.01,158.286z"/>
		</g>
		<g>
			<path fill="#BC715C" d="M128.473,198.731c-0.597,0-1.19-0.006-1.785-0.018c-2.46-0.046-4.414-2.08-4.368-4.545
				c0.044-2.437,2.03-4.385,4.445-4.385c0.028,0,0.056,0,0.084,0.001c10.06,0.173,17.987,0.328,20.183-19.954
				c2.41-22.215,18.472-26.52,26.65-25.702c2.442,0.248,4.224,2.438,3.98,4.891c-0.246,2.443-2.432,4.24-4.844,3.997
				c-1.549-0.117-14.935-0.694-16.94,17.781C153.167,195.818,141.063,198.731,128.473,198.731z"/>
		</g>
		<g>
			<path fill="#9AE8CE" d="M227.906,55.466c0,0-1.603-15.118-11.976-15.118h-50.193c0,0-8.259-11.591-18.629-11.591H93.232
				c-15.685,0-21.136,26.709-21.136,26.709c-6.679,0-12.094,5.415-12.094,12.094s5.416,12.094,12.094,12.094h155.81
				c6.679,0,12.094-5.415,12.094-12.094S234.585,55.466,227.906,55.466z"/>
		</g>
		<g>
			<path fill="#AEF4DB" d="M78.143,67.561c0-6.679,5.416-12.094,12.094-12.094c0,0,5.451-26.709,21.136-26.709H93.232
				c-15.685,0-21.136,26.709-21.136,26.709c-6.679,0-12.094,5.415-12.094,12.094s5.416,12.094,12.094,12.094h18.141
				C83.559,79.655,78.143,74.24,78.143,67.561z"/>
		</g>
		<g>
			<polygon fill="#F4F4F4" points="91.841,271.243 208.161,271.243 213.036,219.749 86.966,219.749 			"/>
		</g>
		<g>
			<polygon fill="#F4F4F4" points="226.302,79.655 73.699,79.655 77.662,121.482 222.34,121.482 			"/>
		</g>
		<g>
			<polygon fill="#AEF4DB" points="73.363,121.482 82.434,219.749 101.582,219.749 92.511,121.482 			"/>
		</g>
		<g>
			<polygon fill="#F9F9F9" points="86.966,219.749 91.841,271.243 110.989,271.243 106.114,219.749 			"/>
		</g>
		<g>
			<polygon fill="#F9F9F9" points="73.699,79.655 77.662,121.482 96.81,121.482 92.848,79.655 			"/>
		</g>
	</g>
	<g>
		<g>
			<path fill="#161616" d="M227.904,84.19H72.096c-9.17,0-16.63-7.46-16.63-16.63s7.46-16.63,16.63-16.63h155.808
				c9.17,0,16.63,7.46,16.63,16.63S237.074,84.19,227.904,84.19z M72.096,60.002c-4.168,0-7.559,3.391-7.559,7.559
				s3.391,7.559,7.559,7.559h155.808c4.168,0,7.559-3.391,7.559-7.559s-3.391-7.559-7.559-7.559H72.096z"/>
		</g>
		<g>
			<path fill="#161616" d="M227.904,60.002H72.096c-1.361,0-2.652-0.613-3.512-1.667c-0.862-1.054-1.203-2.44-0.932-3.775
				c0.253-1.239,6.41-30.338,25.578-30.338h53.876c9.791,0,17.641,7.86,20.814,11.591h48.01c11.408,0,15.729,12.053,16.485,19.175
				c0.136,1.278-0.278,2.556-1.138,3.512C230.415,59.455,229.19,60.002,227.904,60.002z M78.091,50.931H222.14
				c-1.076-2.926-2.981-6.047-6.211-6.047h-50.193c-1.466,0-2.842-0.709-3.694-1.903c-1.936-2.688-8.405-9.688-14.936-9.688H93.23
				C85.25,33.293,80.374,44.106,78.091,50.931z"/>
		</g>
		<g>
			<path fill="#161616" d="M138.498,207.741c-7.2,0-13.779-2.318-18.59-7.126c-11.953-11.963-8.514-34.848,7.662-51.017
				c16.172-16.172,39.057-19.611,51.011-7.658c6.006,6.007,8.377,14.776,6.676,24.691c-1.603,9.341-6.692,18.691-14.331,26.327l0,0
				c0,0.001,0,0.001,0,0.001C161.261,202.624,149.195,207.741,138.498,207.741z M159.9,143.747c-8.222,0-17.958,4.308-25.916,12.266
				c-12.427,12.421-15.934,29.908-7.661,38.189c8.279,8.275,25.768,4.766,38.191-7.658c0,0,0,0,0-0.002
				c6.323-6.32,10.516-13.937,11.803-21.446c1.19-6.932-0.285-12.877-4.149-16.742C169.05,145.238,164.736,143.747,159.9,143.747z"
				/>
		</g>
		<g>
			<path fill="#161616" d="M125.92,198.911c-2.439,0-4.454-1.938-4.531-4.395c-0.077-2.504,1.89-4.596,4.394-4.674l0.847-0.025
				c10.884-0.323,17.454-0.518,19.633-20.067c2.489-22.328,18.8-26.619,27.081-25.785c2.492,0.254,4.307,2.48,4.051,4.972
				c-0.253,2.483-2.476,4.312-4.941,4.054c-1.566-0.134-15.114-0.741-17.176,17.762c-3.05,27.376-17.095,27.794-28.379,28.129
				l-0.836,0.027C126.016,198.911,125.967,198.911,125.92,198.911z"/>
		</g>
		<g>
			<path fill="#161616" d="M208.159,275.778h-14.756c-2.505,0-4.535-2.03-4.535-4.535s2.03-4.535,4.535-4.535h10.63l4.017-42.423
				H91.95l4.017,42.423h76.513c2.505,0,4.535,2.03,4.535,4.535s-2.03,4.535-4.535,4.535H91.841c-2.339,0-4.295-1.779-4.515-4.107
				l-4.877-51.494c-0.121-1.273,0.3-2.535,1.16-3.48c0.859-0.945,2.077-1.484,3.354-1.484h126.071c1.277,0,2.495,0.539,3.354,1.484
				c0.861,0.945,1.281,2.207,1.16,3.48l-4.876,51.494C212.454,273.999,210.498,275.778,208.159,275.778z"/>
		</g>
		<g>
			<path fill="#161616" d="M222.34,126.017H77.66c-2.339,0-4.295-1.779-4.515-4.107l-3.961-41.827
				c-0.121-1.273,0.301-2.535,1.16-3.48c0.859-0.945,2.077-1.484,3.354-1.484h152.601c1.277,0,2.495,0.539,3.354,1.484
				c0.861,0.945,1.281,2.207,1.16,3.48l-3.961,41.827C226.634,124.238,224.678,126.017,222.34,126.017z M81.787,116.946h136.426
				l3.102-32.756H78.685L81.787,116.946z"/>
		</g>
		<g>
			<path fill="#161616" d="M217.23,224.284H82.097c-2.343,0-4.301-1.785-4.516-4.119l-5.618-60.851
				c-0.23-2.494,1.605-4.702,4.1-4.933c2.485-0.221,4.702,1.605,4.932,4.1l5.237,56.732h126.862l8.232-89.196H78l1.064,11.541
				c0.23,2.493-1.605,4.702-4.1,4.932c-2.468,0.239-4.702-1.603-4.933-4.1l-1.522-16.492c-0.117-1.27,0.306-2.53,1.165-3.472
				c0.859-0.942,2.076-1.479,3.351-1.479h153.275c1.276,0,2.492,0.537,3.351,1.479c0.859,0.942,1.282,2.203,1.165,3.472
				l-9.071,98.267C221.531,222.499,219.573,224.284,217.23,224.284z"/>
		</g>
	</g>
</g>
</svg>
