<?xml version="1.0" encoding="utf-8"?>
<!-- Generator: Adobe Illustrator 24.3.0, SVG Export Plug-In . SVG Version: 6.00 Build 0)  -->
<svg version="1.1" id="Layer_1" xmlns="http://www.w3.org/2000/svg" xmlns:xlink="http://www.w3.org/1999/xlink" x="0px" y="0px"
	 viewBox="0 0 300 300" enable-background="new 0 0 300 300" xml:space="preserve">
<g>
	<g>
		<g>
			<path fill="#F4F4F4" d="M183.721,98.938H71.505c-25.488,17.758-42.177,47.262-42.177,80.682c0,33.107,16.385,62.37,41.474,80.178
				H184.43c25.083-17.808,41.474-47.071,41.474-80.178C225.904,146.199,209.209,116.696,183.721,98.938z"/>
		</g>
		<g>
			<path fill="#F9F9F9" d="M53.768,179.62c0-33.42,16.689-62.924,42.177-80.682h-24.44c-25.488,17.758-42.177,47.262-42.177,80.682
				c0,33.107,16.385,62.37,41.474,80.178h24.44C70.153,241.99,53.768,212.727,53.768,179.62z"/>
		</g>
		<g>
			<path fill="#AA6148" d="M70.803,259.798H184.43c25.083-17.808,41.474-47.071,41.474-80.178c0-16.531-4.096-32.096-11.309-45.764
				c-4.113,1.42-8.158,3.168-12.006,5.306c-26.501,14.725-49.845,27.605-102.002,4.585c-20.613-9.097-42.51-9.567-61.473-6.824
				c-6.248,12.914-9.785,27.384-9.785,42.696C29.329,212.727,45.714,241.99,70.803,259.798z"/>
		</g>
		<g>
			<g>
				<path fill="#BC715C" d="M219.118,143.766c-1.335-3.395-2.835-6.71-4.523-9.911c-4.113,1.42-8.158,3.168-12.006,5.306
					c-12.756,7.088-24.788,13.734-39.646,16.17C186.744,158.863,202.985,152.357,219.118,143.766z"/>
			</g>
			<g>
				<path fill="#BC715C" d="M54.273,179.62c0-15.313,3.537-29.783,9.785-42.696c2.283-0.331,4.612-0.611,6.971-0.838
					c-11.043-1.147-21.891-0.611-31.916,0.838c-6.248,12.914-9.785,27.384-9.785,42.696c0,33.107,16.385,62.37,41.474,80.178h24.945
					C70.658,241.99,54.273,212.727,54.273,179.62z"/>
			</g>
		</g>
		<g>
			<path fill="#9AE8CE" d="M202.589,87.853c0,6.121-4.964,11.084-11.082,11.084H63.728c-6.124,0-11.087-4.963-11.087-11.084l0,0
				c0-6.121,4.963-11.085,11.087-11.085h127.779C197.625,76.769,202.589,81.732,202.589,87.853L202.589,87.853z"/>
		</g>
		<g>
			<path fill="#AEF4DB" d="M67.85,87.853c0-6.121,4.964-11.085,11.087-11.085H63.064c-6.124,0-11.087,4.964-11.087,11.085
				c0,6.121,4.964,11.084,11.087,11.084h15.874C72.814,98.938,67.85,93.974,67.85,87.853z"/>
		</g>
		<g>
			<rect x="65.455" y="62.709" fill="#9AE8CE" width="124.316" height="14.059"/>
		</g>
		<g>
			<path fill="#F4F4F4" d="M183.443,62.709V52.59L75.861,39.293c-2.25,0-4.075,1.825-4.075,4.078v19.339H183.443z"/>
		</g>
		<g>
			<path fill="#F9F9F9" d="M87.899,40.781l-12.038-1.488c-2.25,0-4.075,1.825-4.075,4.078v19.339h15.118V43.37
				C86.904,42.372,87.305,41.489,87.899,40.781z"/>
		</g>
		<g>
			<path fill="#F4F4F4" d="M237.6,62.709h-18.355H200.12h-10.349v14.059h10.349h19.125H237.6c3.886,0,7.03-3.146,7.03-7.029
				C244.63,65.855,241.485,62.709,237.6,62.709z"/>
		</g>
		<g>
			<path fill="#9AE8CE" d="M269.598,179.55L244.039,72.393c0-0.006-0.003-0.012-0.006-0.016c-1.045,2.573-3.558,4.392-6.511,4.392
				h-18.207c0.056,0.492,25.757,108.631,25.757,108.631c1.615,6.774,8.415,10.953,15.186,9.338
				C267.035,193.121,271.213,186.322,269.598,179.55z"/>
		</g>
		<g>
			<path fill="#AEF4DB" d="M255.404,185.399c0,0-25.701-108.139-25.757-108.631h-10.332c0.056,0.492,25.757,108.631,25.757,108.631
				c1.615,6.774,8.415,10.953,15.186,9.338c0.803-0.192,1.565-0.467,2.288-0.796C259.095,192.396,256.349,189.365,255.404,185.399z"
				/>
		</g>
		<g>
			<path fill="#9AE8CE" d="M80.934,130.948c0,2.506-2.032,4.535-4.535,4.535h-9.431c-2.504,0-4.535-2.03-4.535-4.535l0,0
				c0-2.505,2.031-4.535,4.535-4.535h9.431C78.902,126.413,80.934,128.443,80.934,130.948L80.934,130.948z"/>
		</g>
		<g>
			<path fill="#9AE8CE" d="M80.934,153.625c0,2.506-2.032,4.535-4.535,4.535h-9.431c-2.504,0-4.535-2.03-4.535-4.535l0,0
				c0-2.505,2.031-4.535,4.535-4.535h9.431C78.902,149.09,80.934,151.12,80.934,153.625L80.934,153.625z"/>
		</g>
		<g>
			<path fill="#9AE8CE" d="M80.934,176.302c0,2.506-2.032,4.535-4.535,4.535h-9.431c-2.504,0-4.535-2.03-4.535-4.535l0,0
				c0-2.505,2.031-4.535,4.535-4.535h9.431C78.902,171.767,80.934,173.797,80.934,176.302L80.934,176.302z"/>
		</g>
		<g>
			<path fill="#9AE8CE" d="M80.934,198.979c0,2.506-2.032,4.535-4.535,4.535h-9.431c-2.504,0-4.535-2.03-4.535-4.535l0,0
				c0-2.505,2.031-4.535,4.535-4.535h9.431C78.902,194.444,80.934,196.474,80.934,198.979L80.934,198.979z"/>
		</g>
		<g>
			<path fill="#9AE8CE" d="M80.934,221.656c0,2.506-2.032,4.535-4.535,4.535h-9.431c-2.504,0-4.535-2.03-4.535-4.535l0,0
				c0-2.505,2.031-4.535,4.535-4.535h9.431C78.902,217.121,80.934,219.151,80.934,221.656L80.934,221.656z"/>
		</g>
		<g>
			<rect x="65.455" y="62.709" fill="#AEF4DB" width="16.742" height="14.059"/>
		</g>
	</g>
	<g>
		<g>
			<path fill="#161616" d="M184.43,264.788h-18.96c-2.504,0-4.535-2.03-4.535-4.535c0-2.505,2.032-4.535,4.535-4.535h17.495
				c24.077-17.65,38.403-45.818,38.403-75.643c0-30.166-14.587-58.524-39.091-76.146H72.949
				c-24.502,17.62-39.085,45.978-39.085,76.146c0,29.83,14.327,57.997,38.403,75.643h72.28c2.504,0,4.535,2.03,4.535,4.535
				c0,2.505-2.032,4.535-4.535,4.535H70.803c-0.942,0-1.857-0.292-2.625-0.837c-27.165-19.281-43.384-50.638-43.384-83.877
				c0-33.604,16.494-65.156,44.12-84.404c0.762-0.53,1.665-0.813,2.592-0.813h112.215c0.927,0,1.831,0.284,2.593,0.813
				c27.629,19.25,44.126,50.803,44.126,84.404c0,33.234-16.219,64.591-43.384,83.877
				C186.287,264.496,185.372,264.788,184.43,264.788z"/>
		</g>
		<g>
			<path fill="#161616" d="M191.507,103.928H63.728c-8.613,0-15.623-7.007-15.623-15.62s7.01-15.62,15.623-15.62h127.779
				c8.61,0,15.617,7.007,15.617,15.62S200.117,103.928,191.507,103.928z M63.728,81.759c-3.614,0-6.552,2.938-6.552,6.549
				c0,3.611,2.938,6.549,6.552,6.549h127.779c3.608,0,6.546-2.938,6.546-6.549c0-3.611-2.938-6.549-6.546-6.549H63.728z"/>
		</g>
		<g>
			<path fill="#161616" d="M189.771,81.759H65.455c-2.504,0-4.535-2.03-4.535-4.535V63.164c0-2.505,2.031-4.535,4.535-4.535h124.316
				c2.504,0,4.535,2.03,4.535,4.535v14.059C194.307,79.729,192.275,81.759,189.771,81.759z M69.991,72.688h115.245v-4.989H69.991
				V72.688z"/>
		</g>
		<g>
			<path fill="#161616" d="M183.443,67.699H71.786c-2.504,0-4.535-2.03-4.535-4.535V43.825c0-4.749,3.862-8.613,8.61-8.613
				c0.186,0,0.372,0.012,0.555,0.034l107.583,13.298c2.274,0.281,3.98,2.212,3.98,4.501v10.119
				C187.979,65.669,185.947,67.699,183.443,67.699z M76.321,58.629h102.587v-1.574L76.321,44.374V58.629z"/>
		</g>
		<g>
			<path fill="#161616" d="M237.599,81.759h-47.828c-2.504,0-4.535-2.03-4.535-4.535V63.164c0-2.505,2.031-4.535,4.535-4.535h47.828
				c6.378,0,11.566,5.188,11.566,11.566C249.165,76.571,243.977,81.759,237.599,81.759z M194.307,72.688h43.293
				c1.376,0,2.495-1.119,2.495-2.493c0-1.376-1.119-2.495-2.495-2.495h-43.293V72.688z"/>
		</g>
		<g>
			<path fill="#161616" d="M257.303,200.077c-3.133,0-6.21-0.864-8.947-2.545c-3.9-2.398-6.632-6.171-7.695-10.625
				c-25.766-108.408-25.81-108.812-25.851-109.17c-0.148-1.283,0.263-2.569,1.122-3.533c0.859-0.966,2.091-1.516,3.384-1.516h18.206
				c1.016,0,1.922-0.614,2.309-1.563c0.632-1.556,2.073-2.635,3.744-2.805c1.68-0.18,3.298,0.599,4.231,1.996
				c0.301,0.45,0.517,0.954,0.644,1.479l3.836,16.083c0.582,2.438-0.924,4.884-3.36,5.464c-2.415,0.588-4.884-0.923-5.462-3.359
				l-2.114-8.87c-1.208,0.421-2.495,0.645-3.827,0.645h-12.49c4.107,17.409,17.093,72.08,24.452,103.047
				c0.499,2.094,1.786,3.871,3.623,4.999c1.834,1.128,3.989,1.476,6.1,0.976c4.329-1.033,7.013-5.395,5.979-9.723l-16.733-70.151
				c-0.582-2.438,0.921-4.884,3.36-5.464c2.427-0.577,4.884,0.923,5.462,3.359l16.733,70.151c2.194,9.193-3.505,18.458-12.7,20.651
				C259.981,199.921,258.638,200.077,257.303,200.077z"/>
		</g>
		<g>
			<path fill="#161616" d="M80.934,131.403c0,2.505-2.032,4.535-4.535,4.535h-9.431c-2.504,0-4.535-2.03-4.535-4.535l0,0
				c0-2.505,2.031-4.535,4.535-4.535h9.431C78.902,126.868,80.934,128.898,80.934,131.403L80.934,131.403z"/>
		</g>
		<g>
			<path fill="#161616" d="M80.934,154.08c0,2.505-2.032,4.535-4.535,4.535h-9.431c-2.504,0-4.535-2.03-4.535-4.535l0,0
				c0-2.505,2.031-4.535,4.535-4.535h9.431C78.902,149.544,80.934,151.574,80.934,154.08L80.934,154.08z"/>
		</g>
		<g>
			<path fill="#161616" d="M184.43,264.788h-18.96c-2.504,0-4.535-2.03-4.535-4.535c0-2.505,2.032-4.535,4.535-4.535h17.495
				c24.077-17.65,38.403-45.818,38.403-75.643c0-13.853-3.103-27.63-9.006-40.089c-2.672,1.079-5.209,2.282-7.571,3.595
				c-26.607,14.78-51.729,28.739-106.035,4.77c-16.385-7.228-35.4-9.521-56.583-6.812c-5.516,12.168-8.309,25.122-8.309,38.536
				c0,29.83,14.327,57.997,38.403,75.643h72.28c2.504,0,4.535,2.03,4.535,4.535c0,2.505-2.032,4.535-4.535,4.535H70.803
				c-0.942,0-1.857-0.292-2.625-0.837c-27.165-19.281-43.384-50.638-43.384-83.877c0-15.601,3.446-30.63,10.237-44.672
				c0.658-1.355,1.943-2.297,3.434-2.513c23.849-3.452,45.363-1.039,63.953,7.163c50.182,22.147,72.327,9.846,97.968-4.401
				c3.892-2.163,8.173-4.056,12.729-5.629c2.108-0.734,4.444,0.191,5.489,2.17c7.742,14.669,11.835,31.225,11.835,47.881
				c0,33.234-16.219,64.591-43.384,83.877C186.287,264.496,185.372,264.788,184.43,264.788z"/>
		</g>
		<g>
			<path fill="#161616" d="M80.934,176.757c0,2.505-2.032,4.535-4.535,4.535h-9.431c-2.504,0-4.535-2.03-4.535-4.535l0,0
				c0-2.505,2.031-4.535,4.535-4.535h9.431C78.902,172.221,80.934,174.251,80.934,176.757L80.934,176.757z"/>
		</g>
		<g>
			<path fill="#161616" d="M80.934,199.434c0,2.505-2.032,4.535-4.535,4.535h-9.431c-2.504,0-4.535-2.03-4.535-4.535l0,0
				c0-2.505,2.031-4.535,4.535-4.535h9.431C78.902,194.898,80.934,196.928,80.934,199.434L80.934,199.434z"/>
		</g>
		<g>
			<path fill="#161616" d="M80.934,222.111c0,2.505-2.032,4.535-4.535,4.535h-9.431c-2.504,0-4.535-2.03-4.535-4.535l0,0
				c0-2.505,2.031-4.535,4.535-4.535h9.431C78.902,217.575,80.934,219.605,80.934,222.111L80.934,222.111z"/>
		</g>
	</g>
</g>
</svg>
