<?xml version="1.0" encoding="utf-8"?>
<!-- Generator: Adobe Illustrator 24.3.0, SVG Export Plug-In . SVG Version: 6.00 Build 0)  -->
<svg version="1.1" id="Layer_1" xmlns="http://www.w3.org/2000/svg" xmlns:xlink="http://www.w3.org/1999/xlink" x="0px" y="0px"
	 viewBox="0 0 300 300" enable-background="new 0 0 300 300" xml:space="preserve">
<g>
	<g>
		<g>
			<path fill="#FFDA88" d="M257.095,176.45c0,52.349-42.434,94.787-94.785,94.787c-52.352,0-94.785-42.438-94.785-94.787
				c0-52.347,42.433-94.785,94.785-94.785C214.662,81.665,257.095,124.103,257.095,176.45z"/>
		</g>
		<g>
			<path fill="#FFE2A9" d="M86.044,176.45c0-49.222,37.52-89.674,85.526-94.329c-3.047-0.295-6.136-0.456-9.26-0.456
				c-52.352,0-94.785,42.438-94.785,94.785c0,52.349,42.433,94.787,94.785,94.787c3.124,0,6.212-0.161,9.26-0.456
				C123.564,266.125,86.044,225.674,86.044,176.45z"/>
		</g>
		<g>
			<g>
				<path fill="#AA6148" d="M184.703,203.39c-17.492,17.492-41.704,21.646-54.073,9.28c-12.357-12.369-8.212-36.578,9.289-54.07
					c17.495-17.495,41.695-21.649,54.067-9.283C206.353,161.685,202.207,185.895,184.703,203.39z"/>
			</g>
			<g>
				<path fill="#BC715C" d="M147.859,166.537c15.573-15.578,36.449-20.542,49.57-12.726c-0.962-1.618-2.085-3.139-3.443-4.494
					c-12.366-12.366-36.572-8.212-54.064,9.283c-17.504,17.492-21.65,41.701-9.289,54.07c1.358,1.359,2.876,2.48,4.494,3.443
					C127.314,202.985,132.275,182.109,147.859,166.537z"/>
			</g>
			<g>
				<g>
					<path fill="#BC715C" d="M135.865,213.78c-0.762,0-1.527-0.009-2.297-0.024c-2.504-0.047-4.5-2.114-4.453-4.618
						c0.047-2.475,2.067-4.453,4.535-4.453c0.027,0,0.053,0,0.083,0.003c12.915,0.23,23.105,0.419,25.913-25.429
						c3.614-33.248,31.591-30.823,31.875-30.794c2.492,0.251,4.308,2.474,4.06,4.966c-0.251,2.486-2.475,4.326-4.943,4.06
						c-2.002-0.165-19.393-0.986-21.974,22.748C165.401,210.258,151.491,213.78,135.865,213.78z"/>
				</g>
			</g>
		</g>
		<g>
			<path fill="#FFDA88" d="M59.469,70.858c0,8.397-6.809,15.205-15.207,15.205l0,0c-8.4,0-15.207-6.808-15.207-15.205V44.555
				c0-8.398,6.806-15.205,15.207-15.205l0,0c8.397,0,15.207,6.807,15.207,15.205V70.858z"/>
		</g>
		<g>
			<path fill="#FFE2A9" d="M39.134,70.857V44.554c0-6.622,4.258-12.198,10.166-14.284c-1.583-0.56-3.263-0.921-5.037-0.921
				c-8.4,0-15.207,6.807-15.207,15.205v26.303c0,8.397,6.806,15.205,15.207,15.205c1.775,0,3.455-0.362,5.037-0.921
				C43.392,83.054,39.134,77.478,39.134,70.857z"/>
		</g>
		<g>
			<rect x="59.469" y="48.964" fill="#AA6148" width="40.432" height="17.485"/>
		</g>
		<g>
			<rect x="224.689" y="48.964" fill="#AA6148" width="46.255" height="17.485"/>
		</g>
		<g>
			<rect x="118.17" y="48.964" fill="#AA6148" width="88.251" height="17.485"/>
		</g>
		<g>
			<path fill="#FFDA88" d="M118.17,92.564V48.618c0-5.043-4.09-9.133-9.133-9.133c-5.046,0-9.135,4.089-9.135,9.133v56.511
				C105.458,100.264,111.582,96.037,118.17,92.564z"/>
		</g>
		<g>
			<path fill="#FFE2A9" d="M109.034,48.618c0-3.372,1.848-6.285,4.568-7.866c-1.346-0.785-2.894-1.267-4.565-1.267
				c-5.046,0-9.135,4.089-9.135,9.133v56.511c2.894-2.532,5.947-4.882,9.133-7.053V48.618z"/>
		</g>
		<g>
			<path fill="#FFDA88" d="M224.689,105.129V48.618c0-5.043-4.089-9.133-9.135-9.133c-5.043,0-9.133,4.089-9.133,9.133v43.945
				C213.008,96.037,219.132,100.264,224.689,105.129z"/>
		</g>
		<g>
			<path fill="#AA6148" d="M105.08,164.175c1.822,1.82,1.822,4.773,0,6.593l0,0c-1.819,1.821-4.772,1.821-6.593,0l-4.674-4.675
				c-1.822-1.82-1.822-4.773,0-6.594l0,0c1.819-1.82,4.771-1.82,6.594,0L105.08,164.175z"/>
		</g>
		<g>
			<path fill="#AA6148" d="M98.487,186.751c1.822-1.822,4.774-1.822,6.593,0l0,0c1.822,1.819,1.822,4.771,0,6.593l-4.674,4.674
				c-1.822,1.822-4.775,1.822-6.594,0l0,0c-1.822-1.819-1.822-4.771,0-6.593L98.487,186.751z"/>
		</g>
		<g>
			<path fill="#AA6148" d="M219.543,164.175c-1.822,1.82-1.822,4.773,0,6.593l0,0c1.819,1.821,4.772,1.821,6.594,0l4.674-4.675
				c1.822-1.82,1.822-4.773,0-6.594l0,0c-1.819-1.82-4.772-1.82-6.594,0L219.543,164.175z"/>
		</g>
		<g>
			<path fill="#AA6148" d="M226.136,186.751c-1.822-1.822-4.775-1.822-6.594,0l0,0c-1.822,1.819-1.822,4.771,0,6.593l4.674,4.674
				c1.822,1.822,4.775,1.822,6.594,0l0,0c1.822-1.819,1.822-4.771,0-6.593L226.136,186.751z"/>
		</g>
	</g>
	<g>
		<g>
			<path fill="#161616" d="M44.263,90.599c-10.887,0-19.742-8.855-19.742-19.741V44.555c0-10.885,8.855-19.74,19.742-19.74
				s19.742,8.855,19.742,19.74v26.303C64.005,81.743,55.15,90.599,44.263,90.599z M44.263,33.885
				c-5.885,0-10.671,4.786-10.671,10.67v26.303c0,5.883,4.786,10.67,10.671,10.67s10.671-4.786,10.671-10.67V44.555
				C54.934,38.672,50.148,33.885,44.263,33.885z"/>
		</g>
		<g>
			<path fill="#161616" d="M99.901,70.984H59.469c-2.504,0-4.535-2.03-4.535-4.535V48.964c0-2.505,2.031-4.535,4.535-4.535h40.432
				c2.504,0,4.535,2.03,4.535,4.535v17.485C104.437,68.954,102.405,70.984,99.901,70.984z M64.005,61.913h31.361v-8.414H64.005
				V61.913z"/>
		</g>
		<g>
			<path fill="#161616" d="M270.944,70.984h-46.254c-2.504,0-4.535-2.03-4.535-4.535V48.964c0-2.505,2.031-4.535,4.535-4.535h12.667
				c2.504,0,4.535,2.03,4.535,4.535c0,2.505-2.031,4.535-4.535,4.535h-8.132v8.414h37.184v-8.414h-8.129
				c-2.504,0-4.535-2.03-4.535-4.535c0-2.505,2.032-4.535,4.535-4.535h12.664c2.504,0,4.535,2.03,4.535,4.535v17.485
				C275.479,68.954,273.448,70.984,270.944,70.984z"/>
		</g>
		<g>
			<path fill="#161616" d="M206.421,70.984H118.17c-2.504,0-4.535-2.03-4.535-4.535V48.964c0-2.505,2.032-4.535,4.535-4.535h88.251
				c2.504,0,4.535,2.03,4.535,4.535v17.485C210.956,68.954,208.925,70.984,206.421,70.984z M122.705,61.913h79.18v-8.414h-79.18
				V61.913z"/>
		</g>
		<g>
			<path fill="#161616" d="M172.766,275.185c-2.283,0-4.246-1.719-4.503-4.041c-0.272-2.489,1.524-4.729,4.013-5.003
				c45.77-5.026,80.285-43.585,80.285-89.691c0-49.764-40.485-90.25-90.25-90.25c-49.765,0-90.25,40.486-90.25,90.25
				c0,46.105,34.515,84.665,80.285,89.691c2.489,0.275,4.284,2.514,4.013,5.003c-0.275,2.489-2.51,4.273-5.005,4.014
				c-50.374-5.533-88.363-47.968-88.363-98.708c0-54.766,44.554-99.321,99.321-99.321c54.767,0,99.321,44.555,99.321,99.321
				c0,50.74-37.99,93.175-88.363,98.708C173.099,275.176,172.931,275.185,172.766,275.185z"/>
		</g>
		<g>
			<path fill="#161616" d="M99.901,109.664c-0.635,0-1.273-0.133-1.875-0.405c-1.618-0.735-2.66-2.35-2.66-4.131V48.618
				c0-7.537,6.133-13.668,13.671-13.668c7.535,0,13.668,6.131,13.668,13.668v43.945c0,1.683-0.93,3.227-2.421,4.011
				c-6.218,3.281-12.074,7.306-17.395,11.966C102.045,109.279,100.979,109.664,99.901,109.664z M109.037,44.021
				c-2.536,0-4.6,2.062-4.6,4.597v47.125c2.959-2.126,6.032-4.088,9.198-5.871V48.618C113.634,46.083,111.573,44.021,109.037,44.021
				z M118.17,92.564h0.03H118.17z"/>
		</g>
		<g>
			<path fill="#161616" d="M224.689,109.664c-1.078,0-2.144-0.384-2.988-1.124c-5.321-4.659-11.176-8.685-17.395-11.966
				c-1.491-0.784-2.421-2.328-2.421-4.011V48.618c0-7.537,6.133-13.668,13.668-13.668c7.538,0,13.671,6.131,13.671,13.668v56.511
				c0,1.781-1.042,3.396-2.66,4.131C225.962,109.531,225.324,109.664,224.689,109.664z M210.956,89.872
				c3.165,1.783,6.239,3.746,9.198,5.871V48.618c0-2.535-2.064-4.597-4.6-4.597c-2.536,0-4.597,2.062-4.597,4.597V89.872z"/>
		</g>
		<g>
			<path fill="#161616" d="M149.28,224.249c-8.48,0-16.214-2.721-21.865-8.369c-14.117-14.129-9.948-41.263,9.289-60.488
				c9.115-9.117,20.265-15.19,31.393-17.101c11.699-2.009,22.03,0.765,29.084,7.819c7.054,7.053,9.833,17.383,7.825,29.087
				c-1.908,11.13-7.981,22.281-17.102,31.399C176.371,218.133,161.988,224.249,149.28,224.249z M175.299,146.728
				c-1.819,0-3.712,0.167-5.666,0.502c-9.295,1.596-18.711,6.772-26.516,14.576c-15.703,15.691-19.869,37.072-9.286,47.66
				c10.577,10.574,31.96,6.415,47.66-9.283l0,0c7.804-7.804,12.98-17.222,14.578-26.518c1.494-8.721-0.387-16.228-5.3-21.142
				C186.959,148.714,181.588,146.728,175.299,146.728z"/>
		</g>
		<g>
			<path fill="#161616" d="M135.809,213.78c-0.765,0-1.53-0.009-2.3-0.024c-2.504-0.046-4.497-2.113-4.453-4.617
				c0.047-2.505,2.114-4.574,4.618-4.451c12.942,0.233,23.105,0.422,25.916-25.429c3.614-33.255,31.579-30.815,31.875-30.794
				c2.492,0.251,4.308,2.476,4.057,4.968c-0.248,2.483-2.457,4.304-4.943,4.06c-2.002-0.176-19.391-0.989-21.971,22.746
				C165.342,210.259,151.432,213.78,135.809,213.78z"/>
		</g>
		<g>
			<path fill="#161616" d="M105.08,164.175c1.822,1.82,1.822,4.773,0,6.593l0,0c-1.819,1.821-4.772,1.821-6.593,0l-4.674-4.675
				c-1.822-1.82-1.822-4.773,0-6.594l0,0c1.819-1.82,4.771-1.82,6.594,0L105.08,164.175z"/>
		</g>
		<g>
			<path fill="#161616" d="M98.487,186.751c1.822-1.822,4.774-1.822,6.593,0l0,0c1.822,1.819,1.822,4.771,0,6.593l-4.674,4.674
				c-1.822,1.822-4.775,1.822-6.594,0l0,0c-1.822-1.819-1.822-4.771,0-6.593L98.487,186.751z"/>
		</g>
		<g>
			<path fill="#161616" d="M219.543,164.175c-1.822,1.82-1.822,4.773,0,6.593l0,0c1.819,1.821,4.772,1.821,6.594,0l4.674-4.675
				c1.822-1.82,1.822-4.773,0-6.594l0,0c-1.819-1.82-4.772-1.82-6.594,0L219.543,164.175z"/>
		</g>
		<g>
			<path fill="#161616" d="M226.136,186.751c-1.822-1.822-4.775-1.822-6.594,0l0,0c-1.822,1.819-1.822,4.771,0,6.593l4.674,4.674
				c1.822,1.822,4.775,1.822,6.594,0l0,0c1.822-1.819,1.822-4.771,0-6.593L226.136,186.751z"/>
		</g>
	</g>
</g>
</svg>
