<?xml version="1.0" encoding="utf-8"?>
<!-- Generator: Adobe Illustrator 24.3.0, SVG Export Plug-In . SVG Version: 6.00 Build 0)  -->
<svg version="1.1" id="Layer_1" xmlns="http://www.w3.org/2000/svg" xmlns:xlink="http://www.w3.org/1999/xlink" x="0px" y="0px"
	 viewBox="0 0 300 300" enable-background="new 0 0 300 300" xml:space="preserve">
<g>
	<g>
		<g>
			<path fill="#F4F4F4" d="M1910.736,1037.349h89.125c19.801-14.003,32.763-37.034,32.763-63.129v-61.765h-154.652v61.765
				C1877.973,1000.315,1890.938,1023.346,1910.736,1037.349z"/>
		</g>
		<g>
			<path fill="#F9F9F9" d="M1897.121,974.22v-61.765h-19.148v61.765c0,26.095,12.965,49.126,32.763,63.129h19.148
				C1910.087,1023.346,1897.121,1000.315,1897.121,974.22z"/>
		</g>
		<g>
			<path fill="#F4F4F4" d="M1893.717,1065.75h156.061c15.685,0,28.399-12.713,28.399-28.401h-212.865
				C1865.312,1053.037,1878.026,1065.75,1893.717,1065.75z"/>
		</g>
		<g>
			<path fill="#F9F9F9" d="M1886.651,1037.349h-21.339c0,15.688,12.714,28.401,28.405,28.401h21.339
				C1899.365,1065.75,1886.651,1053.037,1886.651,1037.349z"/>
		</g>
		<g>
			<path fill="#F4F4F4" d="M2052.963,924.359h-20.339v12.094h20.339c3.49,0,6.342,2.774,6.469,6.233l-6.014,62.241
				c-0.018,0.193-0.027,0.387-0.027,0.582c0,3.573-2.906,6.478-6.475,6.478h-24.198c-2.424,4.303-5.241,8.35-8.416,12.094h32.613
				c10.134,0,18.396-8.16,18.567-18.254l6.021-62.314c0.021-0.193,0.03-0.387,0.03-0.582
				C2071.533,932.69,2063.203,924.359,2052.963,924.359z"/>
		</g>
		<g>
			<g>
				<path fill="#AA6148" d="M1980.356,998.753c-17.492,17.492-41.704,21.646-54.073,9.28c-12.357-12.369-8.211-36.578,9.289-54.07
					c17.495-17.495,41.695-21.649,54.067-9.283C2002.005,957.048,1997.86,981.258,1980.356,998.753z"/>
			</g>
			<g>
				<path fill="#BC715C" d="M1943.512,961.9c15.573-15.578,36.448-20.542,49.57-12.726c-0.963-1.618-2.085-3.138-3.443-4.494
					c-12.366-12.366-36.573-8.211-54.064,9.283c-17.504,17.492-21.65,41.701-9.289,54.07c1.358,1.359,2.876,2.481,4.494,3.443
					C1922.966,998.348,1927.927,977.472,1943.512,961.9z"/>
			</g>
			<g>
				<g>
					<path fill="#BC715C" d="M1931.518,1009.143c-0.762,0-1.527-0.009-2.297-0.024c-2.504-0.047-4.5-2.114-4.453-4.618
						c0.048-2.474,2.067-4.453,4.535-4.453c0.027,0,0.053,0,0.083,0.003c12.915,0.23,23.105,0.419,25.913-25.429
						c3.614-33.248,31.591-30.823,31.875-30.794c2.492,0.251,4.308,2.474,4.06,4.966c-0.251,2.486-2.474,4.326-4.943,4.06
						c-2.002-0.165-19.394-0.986-21.974,22.748C1961.054,1005.621,1947.143,1009.143,1931.518,1009.143z"/>
				</g>
			</g>
		</g>
		<g>
			<g>
				<path fill="#F4F4F4" d="M1955.299,905.394c-2.504,0-4.535-2.03-4.535-4.535v-6.825c0-5.185-4.219-9.404-9.407-9.404h-17.138
					c-10.19,0-18.478-8.288-18.478-18.477v-4.007c0-10.188,8.288-18.477,18.478-18.477h58.334c5.188,0,9.407-4.219,9.407-9.405
					v-6.091c0-2.505,2.031-4.535,4.535-4.535c2.504,0,4.535,2.03,4.535,4.535v6.091c0,10.187-8.288,18.475-18.478,18.475h-58.334
					c-5.188,0-9.407,4.219-9.407,9.406v4.007c0,5.187,4.219,9.406,9.407,9.406h17.138c10.19,0,18.478,8.288,18.478,18.475v6.825
					C1959.834,903.364,1957.803,905.394,1955.299,905.394z"/>
			</g>
		</g>
		<g>
			<g>
				<path fill="#F9F9F9" d="M1998.007,834.264v-6.091c0-1.338,0.59-2.527,1.512-3.359c-0.803-0.724-1.858-1.177-3.024-1.177
					c-2.504,0-4.535,2.03-4.535,4.535v6.091c0,5.185-4.219,9.405-9.407,9.405h6.047
					C1993.788,843.668,1998.007,839.449,1998.007,834.264z"/>
			</g>
			<g>
				<path fill="#F9F9F9" d="M1956.811,900.858v-6.825c0-5.185-4.219-9.404-9.407-9.404h-6.047c5.188,0,9.407,4.219,9.407,9.404
					v6.825c0,2.505,2.031,4.535,4.535,4.535c1.166,0,2.22-0.453,3.024-1.177C1957.401,903.386,1956.811,902.196,1956.811,900.858z"
					/>
			</g>
			<g>
				<path fill="#F9F9F9" d="M1911.788,866.152v-4.007c0-10.188,8.288-18.477,18.478-18.477h-6.047
					c-10.19,0-18.478,8.288-18.478,18.477v4.007c0,10.189,8.288,18.477,18.478,18.477h6.047
					C1920.076,884.628,1911.788,876.34,1911.788,866.152z"/>
			</g>
		</g>
	</g>
	<g>
		<g>
			<path fill="#161616" d="M1999.861,1041.885h-89.125c-0.939,0-1.854-0.291-2.619-0.833c-21.714-15.36-34.68-40.343-34.68-66.832
				v-15.564c0-2.505,2.031-4.535,4.535-4.535s4.535,2.03,4.535,4.535v15.564c0,23.076,11.073,44.873,29.693,58.594h86.196
				c18.62-13.72,29.693-35.515,29.693-58.594v-57.23h-145.581v20.743c0,2.505-2.031,4.535-4.535,4.535s-4.535-2.03-4.535-4.535
				v-25.278c0-2.505,2.031-4.535,4.535-4.535h154.652c2.504,0,4.535,2.03,4.535,4.535v61.765c0,26.49-12.965,51.475-34.68,66.832
				C2001.716,1041.594,2000.8,1041.885,1999.861,1041.885z"/>
		</g>
		<g>
			<path fill="#161616" d="M2049.777,1070.286H1944.95c-2.504,0-4.535-2.03-4.535-4.535c0-2.505,2.031-4.535,4.535-4.535h104.828
				c11.607,0,21.307-8.331,23.433-19.33h-202.932c2.126,10.999,11.829,19.33,23.439,19.33h30.31c2.504,0,4.535,2.03,4.535,4.535
				c0,2.505-2.031,4.535-4.535,4.535h-30.31c-18.162,0-32.941-14.776-32.941-32.936c0-2.505,2.031-4.535,4.535-4.535h212.865
				c2.504,0,4.535,2.03,4.535,4.535C2082.712,1055.51,2067.937,1070.286,2049.777,1070.286z"/>
		</g>
		<g>
			<path fill="#161616" d="M2046.916,1028.617h-32.613c-1.766,0-3.372-1.026-4.116-2.629c-0.741-1.603-0.487-3.492,0.655-4.839
				c2.985-3.518,5.651-7.349,7.925-11.387c0.803-1.426,2.312-2.309,3.951-2.309h24.198c1.069,0,1.94-0.871,1.94-1.943
				c0-0.334,0.015-0.664,0.044-0.995l5.979-61.873c-0.139-0.929-0.957-1.652-1.916-1.652h-20.339c-2.504,0-4.535-2.03-4.535-4.535
				v-12.094c0-2.505,2.031-4.535,4.535-4.535h20.339c12.741,0,23.105,10.366,23.105,23.108c0,0.356-0.018,0.71-0.056,1.063l-6,62.1
				C2069.699,1018.532,2059.38,1028.617,2046.916,1028.617z M2023.392,1019.546h23.524c7.609,0,13.904-6.189,14.031-13.795
				c0.003-0.12,0.009-0.241,0.021-0.359l6.021-62.314c0.009-7.887-6.286-14.183-14.025-14.183h-15.803v3.024h15.803
				c5.95,0,10.783,4.656,11.002,10.602c0.006,0.201,0,0.403-0.018,0.602l-6.015,62.24c-0.006,6.218-4.946,11.16-11.017,11.16
				h-21.596C2024.7,1017.544,2024.056,1018.552,2023.392,1019.546z"/>
		</g>
		<g>
			<path fill="#161616" d="M1955.299,905.393c-2.504,0-4.535-2.03-4.535-4.535v-6.825c0-5.185-4.219-9.404-9.407-9.404h-17.138
				c-10.19,0-18.478-8.288-18.478-18.477v-4.007c0-10.188,8.288-18.477,18.478-18.477h58.334c5.188,0,9.407-4.219,9.407-9.404
				v-6.091c0-2.505,2.031-4.535,4.535-4.535s4.535,2.03,4.535,4.535v6.091c0,10.187-8.288,18.475-18.478,18.475h-58.334
				c-5.188,0-9.407,4.219-9.407,9.406v4.007c0,5.187,4.219,9.406,9.407,9.406h17.138c10.19,0,18.478,8.288,18.478,18.475v6.825
				C1959.834,903.364,1957.803,905.393,1955.299,905.393z"/>
		</g>
		<g>
			<path fill="#161616" d="M1944.944,1019.512c-8.48,0-16.213-2.721-21.865-8.37c-14.117-14.129-9.948-41.263,9.289-60.488
				c9.115-9.117,20.265-15.19,31.393-17.101c11.699-2.009,22.03,0.765,29.084,7.819c7.054,7.053,9.833,17.383,7.825,29.087
				c-1.907,11.13-7.981,22.281-17.102,31.399C1972.035,1013.395,1957.652,1019.512,1944.944,1019.512z M1970.963,941.991
				c-1.819,0-3.712,0.167-5.666,0.502c-9.295,1.596-18.711,6.772-26.515,14.576c-15.703,15.691-19.869,37.071-9.286,47.66
				c10.577,10.574,31.96,6.415,47.66-9.283l0,0c7.804-7.804,12.98-17.222,14.578-26.518c1.494-8.721-0.387-16.228-5.3-21.141
				C1982.623,943.977,1977.252,941.991,1970.963,941.991z"/>
		</g>
		<g>
			<path fill="#161616" d="M1931.473,1009.043c-0.765,0-1.53-0.009-2.3-0.024c-2.504-0.046-4.497-2.113-4.453-4.617
				c0.05-2.505,2.153-4.574,4.618-4.451c12.933,0.233,23.105,0.422,25.916-25.429c3.617-33.255,31.582-30.815,31.875-30.794
				c2.492,0.251,4.308,2.476,4.057,4.968c-0.248,2.483-2.463,4.304-4.943,4.06c-2.002-0.176-19.391-0.989-21.971,22.746
				C1961.006,1005.522,1947.096,1009.043,1931.473,1009.043z"/>
		</g>
	</g>
</g>
<g>
	<g>
		<g>
			<path fill="#F4F4F4" d="M88.992,240.388h89.125c19.801-14.003,32.763-37.035,32.763-63.129v-61.765H56.229v61.765
				C56.229,203.354,69.194,226.385,88.992,240.388z"/>
		</g>
		<g>
			<path fill="#F9F9F9" d="M75.377,177.259v-61.765H56.229v61.765c0,26.095,12.965,49.126,32.763,63.129h19.148
				C88.343,226.385,75.377,203.354,75.377,177.259z"/>
		</g>
		<g>
			<path fill="#F4F4F4" d="M71.973,268.789h156.061c15.685,0,28.399-12.713,28.399-28.401H43.568
				C43.568,256.076,56.282,268.789,71.973,268.789z"/>
		</g>
		<g>
			<path fill="#F9F9F9" d="M64.907,240.388H43.568c0,15.688,12.715,28.401,28.405,28.401h21.339
				C77.621,268.789,64.907,256.076,64.907,240.388z"/>
		</g>
		<g>
			<path fill="#F4F4F4" d="M231.219,127.398h-20.338v12.094h20.338c3.49,0,6.342,2.774,6.469,6.233l-6.015,62.241
				c-0.018,0.193-0.027,0.387-0.027,0.582c0,3.573-2.906,6.478-6.475,6.478h-24.197c-2.424,4.303-5.241,8.35-8.415,12.094h32.613
				c10.134,0,18.396-8.16,18.567-18.254l6.021-62.314c0.021-0.193,0.03-0.387,0.03-0.582
				C249.789,135.729,241.459,127.398,231.219,127.398z"/>
		</g>
		<g>
			<g>
				<path fill="#AA6148" d="M158.612,201.792c-17.492,17.492-41.704,21.646-54.073,9.28c-12.357-12.369-8.212-36.578,9.289-54.07
					c17.495-17.495,41.695-21.649,54.067-9.283C180.261,160.087,176.115,184.297,158.612,201.792z"/>
			</g>
			<g>
				<path fill="#BC715C" d="M121.768,164.938c15.573-15.578,36.448-20.542,49.57-12.726c-0.963-1.618-2.085-3.138-3.443-4.494
					c-12.366-12.366-36.572-8.212-54.064,9.283c-17.504,17.492-21.65,41.701-9.289,54.07c1.358,1.358,2.876,2.481,4.494,3.443
					C101.222,201.387,106.183,180.511,121.768,164.938z"/>
			</g>
			<g>
				<g>
					<path fill="#BC715C" d="M109.774,212.182c-0.762,0-1.527-0.009-2.297-0.024c-2.504-0.047-4.5-2.114-4.453-4.618
						c0.048-2.475,2.067-4.453,4.535-4.453c0.027,0,0.053,0,0.083,0.003c12.915,0.23,23.105,0.419,25.913-25.429
						c3.614-33.248,31.591-30.823,31.875-30.794c2.492,0.251,4.308,2.474,4.06,4.966c-0.251,2.486-2.475,4.326-4.943,4.06
						c-2.002-0.165-19.394-0.986-21.974,22.748C139.31,208.66,125.399,212.182,109.774,212.182z"/>
				</g>
			</g>
		</g>
		<g>
			<g>
				<path fill="#F4F4F4" d="M133.555,108.432c-2.504,0-4.535-2.03-4.535-4.535v-6.825c0-5.185-4.219-9.404-9.407-9.404h-17.138
					c-10.19,0-18.478-8.288-18.478-18.477v-4.007c0-10.188,8.288-18.477,18.478-18.477h58.334c5.188,0,9.407-4.219,9.407-9.405
					v-6.091c0-2.505,2.032-4.535,4.535-4.535c2.504,0,4.535,2.03,4.535,4.535v6.091c0,10.187-8.288,18.475-18.478,18.475h-58.334
					c-5.188,0-9.407,4.219-9.407,9.406v4.007c0,5.187,4.219,9.406,9.407,9.406h17.138c10.19,0,18.478,8.288,18.478,18.475v6.825
					C138.09,106.402,136.059,108.432,133.555,108.432z"/>
			</g>
		</g>
		<g>
			<g>
				<path fill="#F9F9F9" d="M176.263,37.302v-6.091c0-1.338,0.59-2.527,1.512-3.359c-0.803-0.724-1.857-1.177-3.024-1.177
					c-2.504,0-4.535,2.03-4.535,4.535v6.091c0,5.185-4.219,9.405-9.407,9.405h6.047C172.044,46.707,176.263,42.488,176.263,37.302z"
					/>
			</g>
			<g>
				<path fill="#F9F9F9" d="M135.067,103.897v-6.825c0-5.185-4.219-9.404-9.407-9.404h-6.047c5.188,0,9.407,4.219,9.407,9.404v6.825
					c0,2.505,2.032,4.535,4.535,4.535c1.166,0,2.221-0.454,3.024-1.177C135.657,106.424,135.067,105.234,135.067,103.897z"/>
			</g>
			<g>
				<path fill="#F9F9F9" d="M90.044,69.19v-4.007c0-10.188,8.288-18.477,18.478-18.477h-6.047c-10.19,0-18.478,8.288-18.478,18.477
					v4.007c0,10.189,8.288,18.477,18.478,18.477h6.047C98.332,87.667,90.044,79.379,90.044,69.19z"/>
			</g>
		</g>
	</g>
	<g>
		<g>
			<path fill="#161616" d="M178.117,244.924H88.992c-0.939,0-1.854-0.291-2.619-0.833c-21.714-15.36-34.68-40.343-34.68-66.832
				v-15.564c0-2.505,2.031-4.535,4.535-4.535c2.504,0,4.535,2.03,4.535,4.535v15.564c0,23.076,11.073,44.873,29.693,58.594h86.196
				c18.62-13.72,29.693-35.515,29.693-58.594v-57.23H60.764v20.743c0,2.505-2.031,4.535-4.535,4.535
				c-2.504,0-4.535-2.03-4.535-4.535v-25.278c0-2.505,2.031-4.535,4.535-4.535h154.652c2.504,0,4.535,2.03,4.535,4.535v61.765
				c0,26.49-12.965,51.475-34.68,66.832C179.972,244.633,179.056,244.924,178.117,244.924z"/>
		</g>
		<g>
			<path fill="#161616" d="M228.033,273.324H123.205c-2.504,0-4.535-2.03-4.535-4.535s2.032-4.535,4.535-4.535h104.828
				c11.607,0,21.307-8.331,23.433-19.33H48.534c2.126,10.999,11.829,19.33,23.439,19.33h30.31c2.504,0,4.535,2.03,4.535,4.535
				s-2.032,4.535-4.535,4.535h-30.31c-18.162,0-32.941-14.775-32.941-32.936c0-2.505,2.031-4.535,4.535-4.535h212.865
				c2.504,0,4.535,2.03,4.535,4.535C260.968,258.549,246.193,273.324,228.033,273.324z"/>
		</g>
		<g>
			<path fill="#161616" d="M225.172,231.655h-32.613c-1.766,0-3.372-1.026-4.116-2.629c-0.741-1.603-0.487-3.492,0.656-4.839
				c2.985-3.518,5.652-7.349,7.925-11.387c0.803-1.426,2.312-2.309,3.951-2.309h24.198c1.069,0,1.94-0.871,1.94-1.943
				c0-0.334,0.015-0.664,0.044-0.995l5.979-61.873c-0.139-0.929-0.957-1.652-1.916-1.652h-20.338c-2.504,0-4.535-2.03-4.535-4.535
				v-12.094c0-2.505,2.032-4.535,4.535-4.535h20.338c12.741,0,23.105,10.366,23.105,23.108c0,0.356-0.018,0.71-0.056,1.063l-6,62.1
				C247.955,221.57,237.635,231.655,225.172,231.655z M201.648,222.585h23.524c7.609,0,13.904-6.189,14.031-13.795
				c0.003-0.12,0.009-0.241,0.021-0.359l6.021-62.314c0.009-7.887-6.286-14.184-14.026-14.184h-15.803v3.024h15.803
				c5.95,0,10.783,4.657,11.002,10.602c0.006,0.201,0,0.403-0.018,0.602l-6.015,62.24c-0.006,6.218-4.946,11.16-11.017,11.16
				h-21.596C202.956,220.583,202.312,221.591,201.648,222.585z"/>
		</g>
		<g>
			<path fill="#161616" d="M133.555,108.432c-2.504,0-4.535-2.03-4.535-4.535v-6.825c0-5.185-4.219-9.405-9.407-9.405h-17.138
				c-10.19,0-18.478-8.288-18.478-18.477v-4.007c0-10.188,8.288-18.477,18.478-18.477h58.334c5.188,0,9.407-4.219,9.407-9.404
				v-6.092c0-2.505,2.031-4.535,4.535-4.535c2.504,0,4.535,2.03,4.535,4.535v6.092c0,10.187-8.288,18.475-18.478,18.475h-58.334
				c-5.188,0-9.407,4.219-9.407,9.406v4.007c0,5.187,4.219,9.406,9.407,9.406h17.138c10.19,0,18.478,8.288,18.478,18.475v6.825
				C138.09,106.402,136.059,108.432,133.555,108.432z"/>
		</g>
		<g>
			<path fill="#161616" d="M123.2,222.551c-8.48,0-16.213-2.721-21.865-8.37c-14.117-14.129-9.948-41.263,9.289-60.488
				c9.115-9.117,20.265-15.19,31.393-17.101c11.699-2.009,22.03,0.765,29.084,7.819c7.054,7.053,9.833,17.383,7.825,29.087
				c-1.907,11.13-7.981,22.281-17.102,31.399C150.291,216.434,135.908,222.551,123.2,222.551z M149.219,145.03
				c-1.819,0-3.711,0.167-5.666,0.502c-9.295,1.596-18.711,6.772-26.515,14.576c-15.703,15.691-19.869,37.072-9.286,47.66
				c10.577,10.574,31.96,6.415,47.66-9.283l0,0c7.804-7.804,12.98-17.222,14.578-26.518c1.494-8.721-0.387-16.228-5.3-21.141
				C160.879,147.016,155.508,145.03,149.219,145.03z"/>
		</g>
		<g>
			<path fill="#161616" d="M109.729,212.082c-0.765,0-1.53-0.009-2.3-0.024c-2.504-0.046-4.497-2.113-4.453-4.617
				c0.05-2.505,2.152-4.574,4.618-4.451c12.933,0.233,23.105,0.422,25.916-25.429c3.617-33.255,31.582-30.815,31.875-30.794
				c2.492,0.251,4.308,2.476,4.057,4.968c-0.248,2.483-2.463,4.304-4.943,4.06c-2.002-0.176-19.391-0.989-21.971,22.746
				C139.262,208.561,125.352,212.082,109.729,212.082z"/>
		</g>
	</g>
</g>
</svg>
