<svg width="16" height="16" viewBox="0 0 16 16" fill="none" xmlns="http://www.w3.org/2000/svg">
<path fill-rule="evenodd" clip-rule="evenodd" d="M13.8339 14.6265H8.99854C8.72254 14.6265 8.49854 14.4025 8.49854 14.1265C8.49854 13.8505 8.72254 13.6265 8.99854 13.6265H13.8339C14.1099 13.6265 14.3339 13.8505 14.3339 14.1265C14.3339 14.4025 14.1099 14.6265 13.8339 14.6265" fill="#61646B"/>
<mask id="mask0_2293_6381" style="mask-type:alpha" maskUnits="userSpaceOnUse" x="1" y="2" width="12" height="13">
<path fill-rule="evenodd" clip-rule="evenodd" d="M1.3335 2.00012H12.7872V14.6265H1.3335V2.00012Z" fill="white"/>
</mask>
<g mask="url(#mask0_2293_6381)">
<path fill-rule="evenodd" clip-rule="evenodd" d="M8.74035 3.34455L2.46368 11.1946C2.34968 11.3372 2.30768 11.5212 2.34968 11.6979L2.80368 13.6212L4.82968 13.5959C5.02235 13.5939 5.20035 13.5079 5.31835 13.3612C7.46301 10.6779 11.5517 5.56188 11.6677 5.41188C11.777 5.23455 11.8197 4.98388 11.7623 4.74255C11.7037 4.49522 11.5497 4.28522 11.3277 4.15122C11.2803 4.11855 10.157 3.24655 10.1223 3.21922C9.69968 2.88055 9.08301 2.93922 8.74035 3.34455V3.34455ZM2.40901 14.6265C2.17768 14.6265 1.97635 14.4679 1.92235 14.2419L1.37635 11.9279C1.26368 11.4485 1.37568 10.9539 1.68301 10.5699L7.96301 2.71522C7.96568 2.71255 7.96768 2.70922 7.97035 2.70655C8.65901 1.88322 9.90435 1.76188 10.7443 2.43588C10.7777 2.46188 11.893 3.32855 11.893 3.32855C12.2983 3.56988 12.615 4.00122 12.735 4.51188C12.8543 5.01722 12.7677 5.53855 12.4897 5.97922C12.469 6.01188 12.451 6.03988 6.09901 13.9865C5.79301 14.3679 5.33435 14.5899 4.84168 14.5959L2.41568 14.6265H2.40901Z" fill="#61646B"/>
</g>
<path fill-rule="evenodd" clip-rule="evenodd" d="M10.8155 7.78983C10.7089 7.78983 10.6022 7.75583 10.5109 7.6865L6.8762 4.8945C6.65753 4.7265 6.6162 4.41316 6.7842 4.19316C6.95286 3.9745 7.2662 3.93383 7.48553 4.10183L11.1209 6.89316C11.3395 7.06116 11.3809 7.37516 11.2122 7.5945C11.1142 7.7225 10.9655 7.78983 10.8155 7.78983" fill="#61646B"/>
</svg>
