<svg width="250" height="200" viewBox="0 0 250 200" fill="none" xmlns="http://www.w3.org/2000/svg">
<path fill-rule="evenodd" clip-rule="evenodd" d="M93 135H176C179.866 135 183 131.866 183 128C183 124.134 179.866 121 176 121C176 121 170 117.866 170 114C170 110.134 173.952 107 178.826 107H189C192.866 107 196 103.866 196 100C196 96.134 192.866 93 189 93H167C170.866 93 174 89.866 174 86C174 82.134 170.866 79 167 79H207C210.866 79 214 75.866 214 72C214 68.134 210.866 65 207 65H109C105.134 65 102 68.134 102 72C102 75.866 105.134 79 109 79H69C65.134 79 62 82.134 62 86C62 89.866 65.134 93 69 93H94C97.866 93 101 96.134 101 100C101 103.866 97.866 107 94 107H54C50.134 107 47 110.134 47 114C47 117.866 50.134 121 54 121H93C89.134 121 86 124.134 86 128C86 131.866 89.134 135 93 135ZM200 100C200 103.866 203.134 107 207 107C210.866 107 214 103.866 214 100C214 96.134 210.866 93 207 93C203.134 93 200 96.134 200 100Z" fill="#EFEFF0"/>
<path fill-rule="evenodd" clip-rule="evenodd" d="M118.119 113.307C118.04 113.86 118 114.425 118 115C118 121.627 123.373 127 130 127C136.627 127 142 121.627 142 115C142 114.425 141.96 113.86 141.881 113.307H171V140C171 141.657 169.657 143 168 143H92C90.3431 143 89 141.657 89 140V113.307H118.119Z" fill="white"/>
<path fill-rule="evenodd" clip-rule="evenodd" d="M143 113C143 120.18 137.18 126 130 126C122.82 126 117 120.18 117 113C117 112.767 117.006 112.536 117.018 112.307H89L98.5604 84.0389C98.9726 82.8202 100.116 82 101.402 82L158.598 82C159.884 82 161.027 82.8202 161.44 84.0389L171 112.307H142.982C142.994 112.536 143 112.767 143 113Z" fill="white"/>
<path fill-rule="evenodd" clip-rule="evenodd" d="M141.098 113.955C141.098 119.502 136.129 125 130 125C123.871 125 118.902 119.502 118.902 113.955C118.902 113.775 118.908 112.596 118.918 112.419H98L106.161 92.5755C106.513 91.6338 107.489 91 108.587 91H151.413C152.511 91 153.487 91.6338 153.839 92.5755L162 112.419H141.082C141.092 112.596 141.098 113.775 141.098 113.955Z" fill="#EFEFF0"/>
<mask id="path-5-inside-1_1039_6733" fill="white">
<path fill-rule="evenodd" clip-rule="evenodd" d="M98.5604 84.0389C98.9726 82.8202 100.116 82 101.402 82L158.598 82C159.884 82 161.027 82.8202 161.44 84.0389L171 112.307V139C171 140.657 169.657 142 168 142H92C90.3431 142 89 140.657 89 139L89 112.307L98.5604 84.0389Z"/>
</mask>
<path d="M171 112.307H173.5C173.5 112.034 173.455 111.764 173.368 111.506L171 112.307ZM89 112.307L86.6318 111.506C86.5445 111.764 86.5 112.034 86.5 112.307L89 112.307ZM158.598 82V84.5V82ZM161.44 84.0389L163.808 83.2379L161.44 84.0389ZM101.402 82V79.5V82ZM101.402 84.5L158.598 84.5V79.5L101.402 79.5V84.5ZM159.071 84.8398L168.632 113.108L173.368 111.506L163.808 83.2379L159.071 84.8398ZM168.5 112.307V139H173.5V112.307H168.5ZM168 139.5H92V144.5H168V139.5ZM91.5 139L91.5 112.307L86.5 112.307L86.5 139L91.5 139ZM91.3682 113.108L100.929 84.8398L96.1922 83.2379L86.6318 111.506L91.3682 113.108ZM92 139.5C91.7239 139.5 91.5 139.276 91.5 139L86.5 139C86.5 142.038 88.9624 144.5 92 144.5V139.5ZM168.5 139C168.5 139.276 168.276 139.5 168 139.5V144.5C171.038 144.5 173.5 142.038 173.5 139H168.5ZM158.598 84.5C158.812 84.5 159.003 84.6367 159.071 84.8398L163.808 83.2379C163.052 81.0037 160.956 79.5 158.598 79.5V84.5ZM101.402 79.5C99.0438 79.5 96.9478 81.0037 96.1922 83.2379L100.929 84.8398C100.997 84.6367 101.188 84.5 101.402 84.5V79.5Z" fill="#F19528" mask="url(#path-5-inside-1_1039_6733)"/>
<path d="M103 110.75H104.25C104.25 110.06 103.69 109.5 103 109.5V110.75ZM103 113.25V114.5C103.69 114.5 104.25 113.94 104.25 113.25H103ZM103 113.25L101.75 113.25C101.75 113.94 102.31 114.5 103 114.5V113.25ZM116.263 113.331L116.83 112.217L116.83 112.217L116.263 113.331ZM116.297 113.358L115.189 113.935L115.189 113.935L116.297 113.358ZM116.299 113.36L115.21 113.975L115.21 113.975L116.299 113.36ZM116.353 113.566L115.114 113.731L115.114 113.731L116.353 113.566ZM143.442 113.566L144.681 113.731L144.681 113.731L143.442 113.566ZM143.496 113.36L144.584 113.975L144.585 113.973L143.496 113.36ZM143.497 113.358L142.389 112.779L142.388 112.782L143.497 113.358ZM143.532 113.331L144.099 114.445L144.099 114.445L143.532 113.331ZM141.32 112.129L140.232 111.514L140.232 111.514L141.32 112.129ZM140.923 113.954L142.173 113.949L142.173 113.949L140.923 113.954ZM118.871 113.954L120.121 113.959L120.121 113.959L118.871 113.954ZM118.475 112.129L119.563 111.514L119.563 111.514L118.475 112.129ZM103 110.75V109.5C102.31 109.5 101.75 110.06 101.75 110.75L103 110.75ZM95.5737 109.5C94.193 109.5 93.0737 110.619 93.0737 112H95.5737V109.5ZM98 109.5H95.5737V112H98V109.5ZM100.5 112C100.5 110.619 99.3807 109.5 98 109.5V112H100.5ZM98 114.5C99.3807 114.5 100.5 113.381 100.5 112H98V114.5ZM95.5737 114.5H98V112H95.5737V114.5ZM93.0737 112C93.0737 113.381 94.193 114.5 95.5737 114.5V112H93.0737ZM103 109.5C101.619 109.5 100.5 110.619 100.5 112H103V109.5ZM104.25 112V110.75H101.75V112H104.25ZM104.25 113.25V112H101.75V113.25H104.25ZM100.5 112C100.5 113.381 101.619 114.5 103 114.5V112H100.5ZM101.75 112L101.75 113.25L104.25 113.25L104.25 112L101.75 112ZM103 114.5H103V112H103V114.5ZM103 114.5H103.001V112H103V114.5ZM103.001 114.5H103.001V112H103.001V114.5ZM103.001 114.5H103.002V112H103.001V114.5ZM103.002 114.5H103.002V112H103.002V114.5ZM103.002 114.5H103.003V112H103.002V114.5ZM103.003 114.5H103.004V112H103.003V114.5ZM103.004 114.5H103.005V112H103.004V114.5ZM103.005 114.5H103.007V112H103.005V114.5ZM103.007 114.5H103.008V112H103.007V114.5ZM103.008 114.5H103.01V112H103.008V114.5ZM103.01 114.5H103.011V112H103.01V114.5ZM103.011 114.5H103.013V112H103.011V114.5ZM103.013 114.5H103.015V112H103.013V114.5ZM103.015 114.5H103.017V112H103.015V114.5ZM103.017 114.5H103.019V112H103.017V114.5ZM103.019 114.5H103.022V112H103.019V114.5ZM103.022 114.5H103.024V112H103.022V114.5ZM103.024 114.5H103.027V112H103.024V114.5ZM103.027 114.5H103.029V112H103.027V114.5ZM103.029 114.5H103.032V112H103.029V114.5ZM103.032 114.5H103.035V112H103.032V114.5ZM103.035 114.5H103.038V112H103.035V114.5ZM103.038 114.5H103.042V112H103.038V114.5ZM103.042 114.5H103.045V112H103.042V114.5ZM103.045 114.5H103.049V112H103.045V114.5ZM103.049 114.5H103.052V112H103.049V114.5ZM103.052 114.5H103.056V112H103.052V114.5ZM103.056 114.5H103.06V112H103.056V114.5ZM103.06 114.5H103.064V112H103.06V114.5ZM103.064 114.5H103.068V112H103.064V114.5ZM103.068 114.5H103.072V112H103.068V114.5ZM103.072 114.5H103.077V112H103.072V114.5ZM103.077 114.5H103.081V112H103.077V114.5ZM103.081 114.5H103.086V112H103.081V114.5ZM103.086 114.5H103.091V112H103.086V114.5ZM103.091 114.5H103.096V112H103.091V114.5ZM103.096 114.5H103.101V112H103.096V114.5ZM103.101 114.5H103.106V112H103.101V114.5ZM103.106 114.5H103.111V112H103.106V114.5ZM103.111 114.5H103.116V112H103.111V114.5ZM103.116 114.5H103.122V112H103.116V114.5ZM103.122 114.5H103.128V112H103.122V114.5ZM103.128 114.5H103.133V112H103.128V114.5ZM103.133 114.5H103.139V112H103.133V114.5ZM103.139 114.5H103.145V112H103.139V114.5ZM103.145 114.5H103.152V112H103.145V114.5ZM103.152 114.5H103.158V112H103.152V114.5ZM103.158 114.5H103.164V112H103.158V114.5ZM103.164 114.5H103.171V112H103.164V114.5ZM103.171 114.5H103.178V112H103.171V114.5ZM103.178 114.5H103.184V112H103.178V114.5ZM103.184 114.5H103.191V112H103.184V114.5ZM103.191 114.5H103.198V112H103.191V114.5ZM103.198 114.5H103.205V112H103.198V114.5ZM103.205 114.5H103.213V112H103.205V114.5ZM103.213 114.5H103.22V112H103.213V114.5ZM103.22 114.5H103.228V112H103.22V114.5ZM103.228 114.5H103.235V112H103.228V114.5ZM103.235 114.5H103.243V112H103.235V114.5ZM103.243 114.5H103.251V112H103.243V114.5ZM103.251 114.5H103.259V112H103.251V114.5ZM103.259 114.5H103.267V112H103.259V114.5ZM103.267 114.5H103.275V112H103.267V114.5ZM103.275 114.5H103.284V112H103.275V114.5ZM103.284 114.5H103.292V112H103.284V114.5ZM103.292 114.5H103.301V112H103.292V114.5ZM103.301 114.5H103.31V112H103.301V114.5ZM103.31 114.5H103.318V112H103.31V114.5ZM103.318 114.5H103.327V112H103.318V114.5ZM103.327 114.5H103.336V112H103.327V114.5ZM103.336 114.5H103.346V112H103.336V114.5ZM103.346 114.5H103.355V112H103.346V114.5ZM103.355 114.5H103.364V112H103.355V114.5ZM103.364 114.5H103.374V112H103.364V114.5ZM103.374 114.5H103.384V112H103.374V114.5ZM103.384 114.5H103.394V112H103.384V114.5ZM103.394 114.5H103.403V112H103.394V114.5ZM103.403 114.5H103.414V112H103.403V114.5ZM103.414 114.5H103.424V112H103.414V114.5ZM103.424 114.5H103.434V112H103.424V114.5ZM103.434 114.5H103.444V112H103.434V114.5ZM103.444 114.5H103.455V112H103.444V114.5ZM103.455 114.5H103.465V112H103.455V114.5ZM103.465 114.5H103.476V112H103.465V114.5ZM103.476 114.5H103.487V112H103.476V114.5ZM103.487 114.5H103.498V112H103.487V114.5ZM103.498 114.5H103.509V112H103.498V114.5ZM103.509 114.5H103.52V112H103.509V114.5ZM103.52 114.5H103.532V112H103.52V114.5ZM103.532 114.5H103.543V112H103.532V114.5ZM103.543 114.5H103.555V112H103.543V114.5ZM103.555 114.5H103.566V112H103.555V114.5ZM103.566 114.5H103.578V112H103.566V114.5ZM103.578 114.5H103.59V112H103.578V114.5ZM103.59 114.5H103.602V112H103.59V114.5ZM103.602 114.5H103.614V112H103.602V114.5ZM103.614 114.5H103.626V112H103.614V114.5ZM103.626 114.5H103.639V112H103.626V114.5ZM103.639 114.5H103.651V112H103.639V114.5ZM103.651 114.5H103.664V112H103.651V114.5ZM103.664 114.5H103.676V112H103.664V114.5ZM103.676 114.5H103.689V112H103.676V114.5ZM103.689 114.5H103.702V112H103.689V114.5ZM103.702 114.5H103.715V112H103.702V114.5ZM103.715 114.5H103.728V112H103.715V114.5ZM103.728 114.5H103.742V112H103.728V114.5ZM103.742 114.5H103.755V112H103.742V114.5ZM103.755 114.5H103.768V112H103.755V114.5ZM103.768 114.5H103.782V112H103.768V114.5ZM103.782 114.5H103.796V112H103.782V114.5ZM103.796 114.5H103.809V112H103.796V114.5ZM103.809 114.5H103.823V112H103.809V114.5ZM103.823 114.5H103.837V112H103.823V114.5ZM103.837 114.5H103.852V112H103.837V114.5ZM103.852 114.5H103.866V112H103.852V114.5ZM103.866 114.5H103.88V112H103.866V114.5ZM103.88 114.5H103.895V112H103.88V114.5ZM103.895 114.5H103.909V112H103.895V114.5ZM103.909 114.5H103.924V112H103.909V114.5ZM103.924 114.5H103.939V112H103.924V114.5ZM103.939 114.5H103.953V112H103.939V114.5ZM103.953 114.5H103.968V112H103.953V114.5ZM103.968 114.5H103.984V112H103.968V114.5ZM103.984 114.5H103.999V112H103.984V114.5ZM103.999 114.5H104.014V112H103.999V114.5ZM104.014 114.5H104.03V112H104.014V114.5ZM104.03 114.5H104.045V112H104.03V114.5ZM104.045 114.5H104.061V112H104.045V114.5ZM104.061 114.5H104.076V112H104.061V114.5ZM104.076 114.5H104.092V112H104.076V114.5ZM104.092 114.5H104.108V112H104.092V114.5ZM104.108 114.5H104.124V112H104.108V114.5ZM104.124 114.5H104.14V112H104.124V114.5ZM104.14 114.5H104.157V112H104.14V114.5ZM104.157 114.5H104.173V112H104.157V114.5ZM104.173 114.5H104.19V112H104.173V114.5ZM104.19 114.5H104.206V112H104.19V114.5ZM104.206 114.5H104.223V112H104.206V114.5ZM104.223 114.5H104.24V112H104.223V114.5ZM104.24 114.5H104.257V112H104.24V114.5ZM104.257 114.5H104.274V112H104.257V114.5ZM104.274 114.5H104.291V112H104.274V114.5ZM104.291 114.5H104.308V112H104.291V114.5ZM104.308 114.5H104.325V112H104.308V114.5ZM104.325 114.5H104.343V112H104.325V114.5ZM104.343 114.5H104.36V112H104.343V114.5ZM104.36 114.5H104.378V112H104.36V114.5ZM104.378 114.5H104.395V112H104.378V114.5ZM104.395 114.5H104.413V112H104.395V114.5ZM104.413 114.5H104.431V112H104.413V114.5ZM104.431 114.5H104.449V112H104.431V114.5ZM104.449 114.5H104.467V112H104.449V114.5ZM104.467 114.5H104.486V112H104.467V114.5ZM104.486 114.5H104.504V112H104.486V114.5ZM104.504 114.5H104.522V112H104.504V114.5ZM104.522 114.5H104.541V112H104.522V114.5ZM104.541 114.5H104.56V112H104.541V114.5ZM104.56 114.5H104.578V112H104.56V114.5ZM104.578 114.5H104.597V112H104.578V114.5ZM104.597 114.5H104.616V112H104.597V114.5ZM104.616 114.5H104.635V112H104.616V114.5ZM104.635 114.5H104.654V112H104.635V114.5ZM104.654 114.5H104.673V112H104.654V114.5ZM104.673 114.5H104.693V112H104.673V114.5ZM104.693 114.5H104.712V112H104.693V114.5ZM104.712 114.5H104.732V112H104.712V114.5ZM104.732 114.5H104.751V112H104.732V114.5ZM104.751 114.5H104.771V112H104.751V114.5ZM104.771 114.5H104.791V112H104.771V114.5ZM104.791 114.5H104.811V112H104.791V114.5ZM104.811 114.5H104.831V112H104.811V114.5ZM104.831 114.5H104.851V112H104.831V114.5ZM104.851 114.5H104.871V112H104.851V114.5ZM104.871 114.5H104.891V112H104.871V114.5ZM104.891 114.5H104.912V112H104.891V114.5ZM104.912 114.5H104.932V112H104.912V114.5ZM104.932 114.5H104.953V112H104.932V114.5ZM104.953 114.5H104.974V112H104.953V114.5ZM104.974 114.5H104.994V112H104.974V114.5ZM104.994 114.5H105.015V112H104.994V114.5ZM105.015 114.5H105.036V112H105.015V114.5ZM105.036 114.5H105.057V112H105.036V114.5ZM105.057 114.5H105.078V112H105.057V114.5ZM105.078 114.5H105.1V112H105.078V114.5ZM105.1 114.5H105.121V112H105.1V114.5ZM105.121 114.5H105.142V112H105.121V114.5ZM105.142 114.5H105.164V112H105.142V114.5ZM105.164 114.5H105.186V112H105.164V114.5ZM105.186 114.5H105.207V112H105.186V114.5ZM105.207 114.5H105.229V112H105.207V114.5ZM105.229 114.5H105.251V112H105.229V114.5ZM105.251 114.5H105.273V112H105.251V114.5ZM105.273 114.5H105.295V112H105.273V114.5ZM105.295 114.5H105.317V112H105.295V114.5ZM105.317 114.5H105.339V112H105.317V114.5ZM105.339 114.5H105.362V112H105.339V114.5ZM105.362 114.5H105.384V112H105.362V114.5ZM105.384 114.5H105.407V112H105.384V114.5ZM105.407 114.5H105.429V112H105.407V114.5ZM105.429 114.5H105.452V112H105.429V114.5ZM105.452 114.5H105.475V112H105.452V114.5ZM105.475 114.5H105.498V112H105.475V114.5ZM105.498 114.5H105.521V112H105.498V114.5ZM105.521 114.5H105.544V112H105.521V114.5ZM105.544 114.5H105.567V112H105.544V114.5ZM105.567 114.5H105.59V112H105.567V114.5ZM105.59 114.5H105.614V112H105.59V114.5ZM105.614 114.5H105.637V112H105.614V114.5ZM105.637 114.5H105.661V112H105.637V114.5ZM105.661 114.5H105.684V112H105.661V114.5ZM105.684 114.5H105.708V112H105.684V114.5ZM105.708 114.5H105.732V112H105.708V114.5ZM105.732 114.5H105.756V112H105.732V114.5ZM105.756 114.5H105.78V112H105.756V114.5ZM105.78 114.5H105.804V112H105.78V114.5ZM105.804 114.5H105.828V112H105.804V114.5ZM105.828 114.5H105.852V112H105.828V114.5ZM105.852 114.5H105.876V112H105.852V114.5ZM105.876 114.5H105.901V112H105.876V114.5ZM105.901 114.5H105.925V112H105.901V114.5ZM105.925 114.5H105.95V112H105.925V114.5ZM105.95 114.5H105.975V112H105.95V114.5ZM105.975 114.5H105.999V112H105.975V114.5ZM105.999 114.5H106.024V112H105.999V114.5ZM106.024 114.5H106.049V112H106.024V114.5ZM106.049 114.5H106.074V112H106.049V114.5ZM106.074 114.5H106.099V112H106.074V114.5ZM106.099 114.5H106.124V112H106.099V114.5ZM106.124 114.5H106.15V112H106.124V114.5ZM106.15 114.5H106.175V112H106.15V114.5ZM106.175 114.5H106.2V112H106.175V114.5ZM106.2 114.5H106.226V112H106.2V114.5ZM106.226 114.5H106.251V112H106.226V114.5ZM106.251 114.5H106.277V112H106.251V114.5ZM106.277 114.5H106.303V112H106.277V114.5ZM106.303 114.5H106.329V112H106.303V114.5ZM106.329 114.5H106.355V112H106.329V114.5ZM106.355 114.5H106.381V112H106.355V114.5ZM106.381 114.5H106.407V112H106.381V114.5ZM106.407 114.5H106.433V112H106.407V114.5ZM106.433 114.5H106.459V112H106.433V114.5ZM106.459 114.5H106.485V112H106.459V114.5ZM106.485 114.5H106.512V112H106.485V114.5ZM106.512 114.5H106.538V112H106.512V114.5ZM106.538 114.5H106.565V112H106.538V114.5ZM106.565 114.5H106.591V112H106.565V114.5ZM106.591 114.5H106.618V112H106.591V114.5ZM106.618 114.5H106.645V112H106.618V114.5ZM106.645 114.5H106.672V112H106.645V114.5ZM106.672 114.5H106.699V112H106.672V114.5ZM106.699 114.5H106.726V112H106.699V114.5ZM106.726 114.5H106.753V112H106.726V114.5ZM106.753 114.5H106.78V112H106.753V114.5ZM106.78 114.5H106.807V112H106.78V114.5ZM106.807 114.5H106.835V112H106.807V114.5ZM106.835 114.5H106.862V112H106.835V114.5ZM106.862 114.5H106.89V112H106.862V114.5ZM106.89 114.5H106.917V112H106.89V114.5ZM106.917 114.5H106.945V112H106.917V114.5ZM106.945 114.5H106.973V112H106.945V114.5ZM106.973 114.5H107.001V112H106.973V114.5ZM107.001 114.5H107.028V112H107.001V114.5ZM107.028 114.5H107.056V112H107.028V114.5ZM107.056 114.5H107.085V112H107.056V114.5ZM107.085 114.5H107.113V112H107.085V114.5ZM107.113 114.5H107.141V112H107.113V114.5ZM107.141 114.5H107.169V112H107.141V114.5ZM107.169 114.5H107.197V112H107.169V114.5ZM107.197 114.5H107.226V112H107.197V114.5ZM107.226 114.5H107.254V112H107.226V114.5ZM107.254 114.5H107.283V112H107.254V114.5ZM107.283 114.5H107.312V112H107.283V114.5ZM107.312 114.5H107.34V112H107.312V114.5ZM107.34 114.5H107.369V112H107.34V114.5ZM107.369 114.5H107.398V112H107.369V114.5ZM107.398 114.5H107.427V112H107.398V114.5ZM107.427 114.5H107.456V112H107.427V114.5ZM107.456 114.5H107.485V112H107.456V114.5ZM107.485 114.5H107.514V112H107.485V114.5ZM107.514 114.5H107.544V112H107.514V114.5ZM107.544 114.5H107.573V112H107.544V114.5ZM107.573 114.5H107.602V112H107.573V114.5ZM107.602 114.5H107.632V112H107.602V114.5ZM107.632 114.5H107.661V112H107.632V114.5ZM107.661 114.5H107.691V112H107.661V114.5ZM107.691 114.5H107.721V112H107.691V114.5ZM107.721 114.5H107.75V112H107.721V114.5ZM107.75 114.5H107.78V112H107.75V114.5ZM107.78 114.5H107.81V112H107.78V114.5ZM107.81 114.5H107.84V112H107.81V114.5ZM107.84 114.5H107.87V112H107.84V114.5ZM107.87 114.5H107.9V112H107.87V114.5ZM107.9 114.5H107.93V112H107.9V114.5ZM107.93 114.5H107.96V112H107.93V114.5ZM107.96 114.5H107.991V112H107.96V114.5ZM107.991 114.5H108.021V112H107.991V114.5ZM108.021 114.5H108.052V112H108.021V114.5ZM108.052 114.5H108.082V112H108.052V114.5ZM108.082 114.5H108.113V112H108.082V114.5ZM108.113 114.5H108.143V112H108.113V114.5ZM108.143 114.5H108.174V112H108.143V114.5ZM108.174 114.5H108.205V112H108.174V114.5ZM108.205 114.5H108.236V112H108.205V114.5ZM108.236 114.5H108.267V112H108.236V114.5ZM108.267 114.5H108.298V112H108.267V114.5ZM108.298 114.5H108.329V112H108.298V114.5ZM108.329 114.5H108.36V112H108.329V114.5ZM108.36 114.5H108.391V112H108.36V114.5ZM108.391 114.5H108.422V112H108.391V114.5ZM108.422 114.5H108.454V112H108.422V114.5ZM108.454 114.5H108.485V112H108.454V114.5ZM108.485 114.5H108.516V112H108.485V114.5ZM108.516 114.5H108.548V112H108.516V114.5ZM108.548 114.5H108.579V112H108.548V114.5ZM108.579 114.5H108.611V112H108.579V114.5ZM108.611 114.5H108.643V112H108.611V114.5ZM108.643 114.5H108.675V112H108.643V114.5ZM108.675 114.5H108.706V112H108.675V114.5ZM108.706 114.5H108.738V112H108.706V114.5ZM108.738 114.5H108.77V112H108.738V114.5ZM108.77 114.5H108.802V112H108.77V114.5ZM108.802 114.5H108.834V112H108.802V114.5ZM108.834 114.5H108.867V112H108.834V114.5ZM108.867 114.5H108.899V112H108.867V114.5ZM108.899 114.5H108.931V112H108.899V114.5ZM108.931 114.5H108.963V112H108.931V114.5ZM108.963 114.5H108.996V112H108.963V114.5ZM108.996 114.5H109.028V112H108.996V114.5ZM109.028 114.5H109.061V112H109.028V114.5ZM109.061 114.5H109.093V112H109.061V114.5ZM109.093 114.5H109.126V112H109.093V114.5ZM109.126 114.5H109.159V112H109.126V114.5ZM109.159 114.5H109.192V112H109.159V114.5ZM109.192 114.5H109.224V112H109.192V114.5ZM109.224 114.5H109.257V112H109.224V114.5ZM109.257 114.5H109.29V112H109.257V114.5ZM109.29 114.5H109.323V112H109.29V114.5ZM109.323 114.5H109.356V112H109.323V114.5ZM109.356 114.5H109.39V112H109.356V114.5ZM109.39 114.5H109.423V112H109.39V114.5ZM109.423 114.5H109.456V112H109.423V114.5ZM109.456 114.5H109.489V112H109.456V114.5ZM109.489 114.5H109.523V112H109.489V114.5ZM109.523 114.5H109.556V112H109.523V114.5ZM109.556 114.5H109.59V112H109.556V114.5ZM109.59 114.5H109.623V112H109.59V114.5ZM109.623 114.5H109.657V112H109.623V114.5ZM109.657 114.5H109.69V112H109.657V114.5ZM109.69 114.5H109.724V112H109.69V114.5ZM109.724 114.5H109.758V112H109.724V114.5ZM109.758 114.5H109.792V112H109.758V114.5ZM109.792 114.5H109.826V112H109.792V114.5ZM109.826 114.5H109.86V112H109.826V114.5ZM109.86 114.5H109.894V112H109.86V114.5ZM109.894 114.5H109.928V112H109.894V114.5ZM109.928 114.5H109.962V112H109.928V114.5ZM109.962 114.5H109.996V112H109.962V114.5ZM109.996 114.5H110.03V112H109.996V114.5ZM110.03 114.5H110.065V112H110.03V114.5ZM110.065 114.5H110.099V112H110.065V114.5ZM110.099 114.5H110.133V112H110.099V114.5ZM110.133 114.5H110.168V112H110.133V114.5ZM110.168 114.5H110.202V112H110.168V114.5ZM110.202 114.5H110.237V112H110.202V114.5ZM110.237 114.5H110.271V112H110.237V114.5ZM110.271 114.5H110.306V112H110.271V114.5ZM110.306 114.5H110.341V112H110.306V114.5ZM110.341 114.5H110.376V112H110.341V114.5ZM110.376 114.5H110.41V112H110.376V114.5ZM110.41 114.5H110.445V112H110.41V114.5ZM110.445 114.5H110.48V112H110.445V114.5ZM110.48 114.5H110.515V112H110.48V114.5ZM110.515 114.5H110.55V112H110.515V114.5ZM110.55 114.5H110.585V112H110.55V114.5ZM110.585 114.5H110.62V112H110.585V114.5ZM110.62 114.5H110.656V112H110.62V114.5ZM110.656 114.5H110.691V112H110.656V114.5ZM110.691 114.5H110.726V112H110.691V114.5ZM110.726 114.5H110.762V112H110.726V114.5ZM110.762 114.5H110.797V112H110.762V114.5ZM110.797 114.5H110.832V112H110.797V114.5ZM110.832 114.5H110.868V112H110.832V114.5ZM110.868 114.5H110.903V112H110.868V114.5ZM110.903 114.5H110.939V112H110.903V114.5ZM110.939 114.5H110.975V112H110.939V114.5ZM110.975 114.5H111.01V112H110.975V114.5ZM111.01 114.5H111.046V112H111.01V114.5ZM111.046 114.5H111.082V112H111.046V114.5ZM111.082 114.5H111.118V112H111.082V114.5ZM111.118 114.5H111.154V112H111.118V114.5ZM111.154 114.5H111.19V112H111.154V114.5ZM111.19 114.5H111.226V112H111.19V114.5ZM111.226 114.5H111.262V112H111.226V114.5ZM111.262 114.5H111.298V112H111.262V114.5ZM111.298 114.5H111.334V112H111.298V114.5ZM111.334 114.5H111.37V112H111.334V114.5ZM111.37 114.5H111.406V112H111.37V114.5ZM111.406 114.5H111.442V112H111.406V114.5ZM111.442 114.5H111.479V112H111.442V114.5ZM111.479 114.5H111.515V112H111.479V114.5ZM111.515 114.5H111.551V112H111.515V114.5ZM111.551 114.5H111.588V112H111.551V114.5ZM111.588 114.5H111.624V112H111.588V114.5ZM111.624 114.5H111.661V112H111.624V114.5ZM111.661 114.5H111.698V112H111.661V114.5ZM111.698 114.5H111.734V112H111.698V114.5ZM111.734 114.5H111.771V112H111.734V114.5ZM111.771 114.5H111.808V112H111.771V114.5ZM111.808 114.5H111.844V112H111.808V114.5ZM111.844 114.5H111.881V112H111.844V114.5ZM111.881 114.5H111.918V112H111.881V114.5ZM111.918 114.5H111.955V112H111.918V114.5ZM111.955 114.5H111.992V112H111.955V114.5ZM111.992 114.5H112.029V112H111.992V114.5ZM112.029 114.5H112.066V112H112.029V114.5ZM112.066 114.5H112.103V112H112.066V114.5ZM112.103 114.5H112.14V112H112.103V114.5ZM112.14 114.5H112.177V112H112.14V114.5ZM112.177 114.5H112.214V112H112.177V114.5ZM112.214 114.5H112.252V112H112.214V114.5ZM112.252 114.5H112.289V112H112.252V114.5ZM112.289 114.5H112.326V112H112.289V114.5ZM112.326 114.5H112.363V112H112.326V114.5ZM112.363 114.5H112.401V112H112.363V114.5ZM112.401 114.5H112.438V112H112.401V114.5ZM112.438 114.5H112.476V112H112.438V114.5ZM112.476 114.5H112.513V112H112.476V114.5ZM112.513 114.5H112.551V112H112.513V114.5ZM112.551 114.5H112.588V112H112.551V114.5ZM112.588 114.5H112.626V112H112.588V114.5ZM112.626 114.5H112.664V112H112.626V114.5ZM112.664 114.5H112.701V112H112.664V114.5ZM112.701 114.5H112.739V112H112.701V114.5ZM112.739 114.5H112.777V112H112.739V114.5ZM112.777 114.5H112.815V112H112.777V114.5ZM112.815 114.5H112.853V112H112.815V114.5ZM112.853 114.5H112.891V112H112.853V114.5ZM112.891 114.5H112.929V112H112.891V114.5ZM112.929 114.5H112.967V112H112.929V114.5ZM112.967 114.5H113.005V112H112.967V114.5ZM113.005 114.5H113.043V112H113.005V114.5ZM113.043 114.5H113.081V112H113.043V114.5ZM113.081 114.5H113.119V112H113.081V114.5ZM113.119 114.5H113.157V112H113.119V114.5ZM113.157 114.5H113.195V112H113.157V114.5ZM113.195 114.5H113.233V112H113.195V114.5ZM113.233 114.5H113.272V112H113.233V114.5ZM113.272 114.5H113.31V112H113.272V114.5ZM113.31 114.5H113.348V112H113.31V114.5ZM113.348 114.5H113.387V112H113.348V114.5ZM113.387 114.5H113.425V112H113.387V114.5ZM113.425 114.5H113.464V112H113.425V114.5ZM113.464 114.5H113.502V112H113.464V114.5ZM113.502 114.5H113.541V112H113.502V114.5ZM113.541 114.5H113.579V112H113.541V114.5ZM113.579 114.5H113.618V112H113.579V114.5ZM113.618 114.5H113.656V112H113.618V114.5ZM113.656 114.5H113.695V112H113.656V114.5ZM113.695 114.5H113.734V112H113.695V114.5ZM113.734 114.5H113.772V112H113.734V114.5ZM113.772 114.5H113.811V112H113.772V114.5ZM113.811 114.5H113.85V112H113.811V114.5ZM113.85 114.5H113.889V112H113.85V114.5ZM113.889 114.5H113.928V112H113.889V114.5ZM113.928 114.5H113.966V112H113.928V114.5ZM113.966 114.5H114.005V112H113.966V114.5ZM114.005 114.5H114.044V112H114.005V114.5ZM114.044 114.5H114.083V112H114.044V114.5ZM114.083 114.5H114.122V112H114.083V114.5ZM114.122 114.5H114.161V112H114.122V114.5ZM114.161 114.5H114.2V112H114.161V114.5ZM114.2 114.5H114.239V112H114.2V114.5ZM114.239 114.5H114.279V112H114.239V114.5ZM114.279 114.5H114.318V112H114.279V114.5ZM114.318 114.5H114.357V112H114.318V114.5ZM114.357 114.5H114.396V112H114.357V114.5ZM114.396 114.5H114.435V112H114.396V114.5ZM114.435 114.5H114.475V112H114.435V114.5ZM114.475 114.5H114.514V112H114.475V114.5ZM114.514 114.5H114.553V112H114.514V114.5ZM114.553 114.5H114.593V112H114.553V114.5ZM114.593 114.5H114.632V112H114.593V114.5ZM114.632 114.5H114.671V112H114.632V114.5ZM114.671 114.5H114.711V112H114.671V114.5ZM114.711 114.5H114.75V112H114.711V114.5ZM114.75 114.5H114.79V112H114.75V114.5ZM114.79 114.5H114.829V112H114.79V114.5ZM114.829 114.5H114.869V112H114.829V114.5ZM114.869 114.5H114.908V112H114.869V114.5ZM114.908 114.5H114.948V112H114.908V114.5ZM114.948 114.5H114.988V112H114.948V114.5ZM114.988 114.5H115.027V112H114.988V114.5ZM115.027 114.5H115.067V112H115.027V114.5ZM115.067 114.5H115.107V112H115.067V114.5ZM115.107 114.5H115.146V112H115.107V114.5ZM115.146 114.5H115.186V112H115.146V114.5ZM115.186 114.5H115.226V112H115.186V114.5ZM115.226 114.5H115.266V112H115.226V114.5ZM115.266 114.5H115.305V112H115.266V114.5ZM115.305 114.5H115.345V112H115.305V114.5ZM115.345 114.5H115.385V112H115.345V114.5ZM115.385 114.5H115.425V112H115.385V114.5ZM115.425 114.5H115.465V112H115.425V114.5ZM115.465 114.5H115.505V112H115.465V114.5ZM115.505 114.5H115.545V112H115.505V114.5ZM115.545 114.5H115.585V112H115.545V114.5ZM115.585 114.5H115.625V112H115.585V114.5ZM115.625 114.5H115.665V112H115.625V114.5ZM115.665 114.5H115.705V112H115.665V114.5ZM115.705 114.5H115.745V112H115.705V114.5ZM115.745 114.5C115.929 114.5 115.869 114.533 115.696 114.445L116.83 112.217C116.566 112.083 116.215 112 115.745 112V114.5ZM115.696 114.445C115.678 114.436 115.579 114.386 115.468 114.289C115.403 114.233 115.337 114.163 115.277 114.079C115.221 114.001 115.186 113.93 115.189 113.935L117.406 112.78C117.374 112.719 117.286 112.558 117.111 112.405C116.99 112.3 116.875 112.24 116.83 112.217L115.696 114.445ZM115.189 113.935C115.189 113.935 115.189 113.935 115.189 113.935C115.189 113.935 115.189 113.936 115.189 113.936C115.189 113.936 115.189 113.936 115.189 113.936C115.19 113.936 115.19 113.937 115.19 113.938C115.191 113.94 115.193 113.942 115.194 113.946C115.198 113.952 115.203 113.963 115.21 113.975L117.387 112.744C117.393 112.756 117.398 112.766 117.401 112.771C117.404 112.777 117.407 112.781 117.406 112.78L115.189 113.935ZM115.21 113.975C115.161 113.887 115.137 113.817 115.127 113.782C115.115 113.744 115.113 113.724 115.114 113.731L117.592 113.4C117.563 113.181 117.504 112.952 117.387 112.744L115.21 113.975ZM115.114 113.731C115.118 113.762 115.121 113.813 115.121 114H117.621C117.621 113.833 117.621 113.621 117.592 113.4L115.114 113.731ZM115.121 114C115.121 122.062 121.791 128.5 129.897 128.5V126C123.117 126 117.621 120.627 117.621 114H115.121ZM129.897 128.5C138.003 128.5 144.673 122.062 144.673 114H142.173C142.173 120.627 136.678 126 129.897 126V128.5ZM144.673 114C144.673 113.813 144.676 113.762 144.681 113.731L142.203 113.4C142.173 113.621 142.173 113.833 142.173 114H144.673ZM144.681 113.731C144.682 113.724 144.68 113.744 144.668 113.782C144.658 113.817 144.634 113.887 144.584 113.975L142.408 112.744C142.291 112.952 142.232 113.181 142.203 113.4L144.681 113.731ZM144.585 113.973C144.592 113.961 144.597 113.951 144.601 113.944C144.603 113.941 144.604 113.938 144.605 113.937C144.606 113.935 144.607 113.934 144.607 113.933L142.388 112.782C142.387 112.783 142.39 112.778 142.392 112.773C142.396 112.767 142.401 112.758 142.407 112.746L144.585 113.973ZM144.606 113.936C144.608 113.931 144.573 114.001 144.518 114.079C144.457 114.163 144.391 114.233 144.326 114.29C144.216 114.386 144.116 114.436 144.099 114.445L142.965 112.217C142.919 112.24 142.804 112.3 142.684 112.405C142.508 112.558 142.421 112.719 142.389 112.779L144.606 113.936ZM144.099 114.445C143.926 114.533 143.866 114.5 144.05 114.5V112C143.58 112 143.228 112.083 142.965 112.217L144.099 114.445ZM144.05 114.5H169V112H144.05V114.5ZM169 114.5C170.381 114.5 171.5 113.381 171.5 112H169V114.5ZM171.5 112C171.5 110.619 170.381 109.5 169 109.5V112H171.5ZM169 109.5H144.05V112H169V109.5ZM144.05 109.5C142.448 109.5 141.016 110.127 140.232 111.514L142.408 112.744C142.64 112.334 143.106 112 144.05 112V109.5ZM140.232 111.514C139.652 112.539 139.672 113.635 139.673 113.959L142.173 113.949C142.172 113.622 142.186 113.137 142.408 112.744L140.232 111.514ZM139.673 113.959C139.673 113.976 139.673 113.989 139.673 114H142.173C142.173 113.983 142.173 113.965 142.173 113.949L139.673 113.959ZM139.673 114C139.673 119.194 135.349 123.5 129.897 123.5V126C136.678 126 142.173 120.626 142.173 114H139.673ZM129.897 123.5C124.445 123.5 120.121 119.194 120.121 114H117.621C117.621 120.626 123.116 126 129.897 126V123.5ZM120.121 114C120.121 113.989 120.121 113.976 120.121 113.959L117.621 113.949C117.621 113.965 117.621 113.983 117.621 114H120.121ZM120.121 113.959C120.123 113.635 120.142 112.539 119.563 111.514L117.387 112.744C117.609 113.137 117.623 113.622 117.621 113.949L120.121 113.959ZM119.563 111.514C118.779 110.127 117.346 109.5 115.745 109.5V112C116.689 112 117.154 112.334 117.387 112.744L119.563 111.514ZM115.745 109.5H115.705V112H115.745V109.5ZM115.705 109.5H115.665V112H115.705V109.5ZM115.665 109.5H115.625V112H115.665V109.5ZM115.625 109.5H115.585V112H115.625V109.5ZM115.585 109.5H115.545V112H115.585V109.5ZM115.545 109.5H115.505V112H115.545V109.5ZM115.505 109.5H115.465V112H115.505V109.5ZM115.465 109.5H115.425V112H115.465V109.5ZM115.425 109.5H115.385V112H115.425V109.5ZM115.385 109.5H115.345V112H115.385V109.5ZM115.345 109.5H115.305V112H115.345V109.5ZM115.305 109.5H115.266V112H115.305V109.5ZM115.266 109.5H115.226V112H115.266V109.5ZM115.226 109.5H115.186V112H115.226V109.5ZM115.186 109.5H115.146V112H115.186V109.5ZM115.146 109.5H115.107V112H115.146V109.5ZM115.107 109.5H115.067V112H115.107V109.5ZM115.067 109.5H115.027V112H115.067V109.5ZM115.027 109.5H114.988V112H115.027V109.5ZM114.988 109.5H114.948V112H114.988V109.5ZM114.948 109.5H114.908V112H114.948V109.5ZM114.908 109.5H114.869V112H114.908V109.5ZM114.869 109.5H114.829V112H114.869V109.5ZM114.829 109.5H114.79V112H114.829V109.5ZM114.79 109.5H114.75V112H114.79V109.5ZM114.75 109.5H114.711V112H114.75V109.5ZM114.711 109.5H114.671V112H114.711V109.5ZM114.671 109.5H114.632V112H114.671V109.5ZM114.632 109.5H114.593V112H114.632V109.5ZM114.593 109.5H114.553V112H114.593V109.5ZM114.553 109.5H114.514V112H114.553V109.5ZM114.514 109.5H114.475V112H114.514V109.5ZM114.475 109.5H114.435V112H114.475V109.5ZM114.435 109.5H114.396V112H114.435V109.5ZM114.396 109.5H114.357V112H114.396V109.5ZM114.357 109.5H114.318V112H114.357V109.5ZM114.318 109.5H114.279V112H114.318V109.5ZM114.279 109.5H114.239V112H114.279V109.5ZM114.239 109.5H114.2V112H114.239V109.5ZM114.2 109.5H114.161V112H114.2V109.5ZM114.161 109.5H114.122V112H114.161V109.5ZM114.122 109.5H114.083V112H114.122V109.5ZM114.083 109.5H114.044V112H114.083V109.5ZM114.044 109.5H114.005V112H114.044V109.5ZM114.005 109.5H113.966V112H114.005V109.5ZM113.966 109.5H113.928V112H113.966V109.5ZM113.928 109.5H113.889V112H113.928V109.5ZM113.889 109.5H113.85V112H113.889V109.5ZM113.85 109.5H113.811V112H113.85V109.5ZM113.811 109.5H113.772V112H113.811V109.5ZM113.772 109.5H113.734V112H113.772V109.5ZM113.734 109.5H113.695V112H113.734V109.5ZM113.695 109.5H113.656V112H113.695V109.5ZM113.656 109.5H113.618V112H113.656V109.5ZM113.618 109.5H113.579V112H113.618V109.5ZM113.579 109.5H113.541V112H113.579V109.5ZM113.541 109.5H113.502V112H113.541V109.5ZM113.502 109.5H113.464V112H113.502V109.5ZM113.464 109.5H113.425V112H113.464V109.5ZM113.425 109.5H113.387V112H113.425V109.5ZM113.387 109.5H113.348V112H113.387V109.5ZM113.348 109.5H113.31V112H113.348V109.5ZM113.31 109.5H113.272V112H113.31V109.5ZM113.272 109.5H113.233V112H113.272V109.5ZM113.233 109.5H113.195V112H113.233V109.5ZM113.195 109.5H113.157V112H113.195V109.5ZM113.157 109.5H113.119V112H113.157V109.5ZM113.119 109.5H113.081V112H113.119V109.5ZM113.081 109.5H113.043V112H113.081V109.5ZM113.043 109.5H113.005V112H113.043V109.5ZM113.005 109.5H112.967V112H113.005V109.5ZM112.967 109.5H112.929V112H112.967V109.5ZM112.929 109.5H112.891V112H112.929V109.5ZM112.891 109.5H112.853V112H112.891V109.5ZM112.853 109.5H112.815V112H112.853V109.5ZM112.815 109.5H112.777V112H112.815V109.5ZM112.777 109.5H112.739V112H112.777V109.5ZM112.739 109.5H112.701V112H112.739V109.5ZM112.701 109.5H112.664V112H112.701V109.5ZM112.664 109.5H112.626V112H112.664V109.5ZM112.626 109.5H112.588V112H112.626V109.5ZM112.588 109.5H112.551V112H112.588V109.5ZM112.551 109.5H112.513V112H112.551V109.5ZM112.513 109.5H112.476V112H112.513V109.5ZM112.476 109.5H112.438V112H112.476V109.5ZM112.438 109.5H112.401V112H112.438V109.5ZM112.401 109.5H112.363V112H112.401V109.5ZM112.363 109.5H112.326V112H112.363V109.5ZM112.326 109.5H112.289V112H112.326V109.5ZM112.289 109.5H112.252V112H112.289V109.5ZM112.252 109.5H112.214V112H112.252V109.5ZM112.214 109.5H112.177V112H112.214V109.5ZM112.177 109.5H112.14V112H112.177V109.5ZM112.14 109.5H112.103V112H112.14V109.5ZM112.103 109.5H112.066V112H112.103V109.5ZM112.066 109.5H112.029V112H112.066V109.5ZM112.029 109.5H111.992V112H112.029V109.5ZM111.992 109.5H111.955V112H111.992V109.5ZM111.955 109.5H111.918V112H111.955V109.5ZM111.918 109.5H111.881V112H111.918V109.5ZM111.881 109.5H111.844V112H111.881V109.5ZM111.844 109.5H111.808V112H111.844V109.5ZM111.808 109.5H111.771V112H111.808V109.5ZM111.771 109.5H111.734V112H111.771V109.5ZM111.734 109.5H111.698V112H111.734V109.5ZM111.698 109.5H111.661V112H111.698V109.5ZM111.661 109.5H111.624V112H111.661V109.5ZM111.624 109.5H111.588V112H111.624V109.5ZM111.588 109.5H111.551V112H111.588V109.5ZM111.551 109.5H111.515V112H111.551V109.5ZM111.515 109.5H111.479V112H111.515V109.5ZM111.479 109.5H111.442V112H111.479V109.5ZM111.442 109.5H111.406V112H111.442V109.5ZM111.406 109.5H111.37V112H111.406V109.5ZM111.37 109.5H111.334V112H111.37V109.5ZM111.334 109.5H111.298V112H111.334V109.5ZM111.298 109.5H111.262V112H111.298V109.5ZM111.262 109.5H111.226V112H111.262V109.5ZM111.226 109.5H111.19V112H111.226V109.5ZM111.19 109.5H111.154V112H111.19V109.5ZM111.154 109.5H111.118V112H111.154V109.5ZM111.118 109.5H111.082V112H111.118V109.5ZM111.082 109.5H111.046V112H111.082V109.5ZM111.046 109.5H111.01V112H111.046V109.5ZM111.01 109.5H110.975V112H111.01V109.5ZM110.975 109.5H110.939V112H110.975V109.5ZM110.939 109.5H110.903V112H110.939V109.5ZM110.903 109.5H110.868V112H110.903V109.5ZM110.868 109.5H110.832V112H110.868V109.5ZM110.832 109.5H110.797V112H110.832V109.5ZM110.797 109.5H110.762V112H110.797V109.5ZM110.762 109.5H110.726V112H110.762V109.5ZM110.726 109.5H110.691V112H110.726V109.5ZM110.691 109.5H110.656V112H110.691V109.5ZM110.656 109.5H110.62V112H110.656V109.5ZM110.62 109.5H110.585V112H110.62V109.5ZM110.585 109.5H110.55V112H110.585V109.5ZM110.55 109.5H110.515V112H110.55V109.5ZM110.515 109.5H110.48V112H110.515V109.5ZM110.48 109.5H110.445V112H110.48V109.5ZM110.445 109.5H110.41V112H110.445V109.5ZM110.41 109.5H110.376V112H110.41V109.5ZM110.376 109.5H110.341V112H110.376V109.5ZM110.341 109.5H110.306V112H110.341V109.5ZM110.306 109.5H110.271V112H110.306V109.5ZM110.271 109.5H110.237V112H110.271V109.5ZM110.237 109.5H110.202V112H110.237V109.5ZM110.202 109.5H110.168V112H110.202V109.5ZM110.168 109.5H110.133V112H110.168V109.5ZM110.133 109.5H110.099V112H110.133V109.5ZM110.099 109.5H110.065V112H110.099V109.5ZM110.065 109.5H110.03V112H110.065V109.5ZM110.03 109.5H109.996V112H110.03V109.5ZM109.996 109.5H109.962V112H109.996V109.5ZM109.962 109.5H109.928V112H109.962V109.5ZM109.928 109.5H109.894V112H109.928V109.5ZM109.894 109.5H109.86V112H109.894V109.5ZM109.86 109.5H109.826V112H109.86V109.5ZM109.826 109.5H109.792V112H109.826V109.5ZM109.792 109.5H109.758V112H109.792V109.5ZM109.758 109.5H109.724V112H109.758V109.5ZM109.724 109.5H109.69V112H109.724V109.5ZM109.69 109.5H109.657V112H109.69V109.5ZM109.657 109.5H109.623V112H109.657V109.5ZM109.623 109.5H109.59V112H109.623V109.5ZM109.59 109.5H109.556V112H109.59V109.5ZM109.556 109.5H109.523V112H109.556V109.5ZM109.523 109.5H109.489V112H109.523V109.5ZM109.489 109.5H109.456V112H109.489V109.5ZM109.456 109.5H109.423V112H109.456V109.5ZM109.423 109.5H109.39V112H109.423V109.5ZM109.39 109.5H109.356V112H109.39V109.5ZM109.356 109.5H109.323V112H109.356V109.5ZM109.323 109.5H109.29V112H109.323V109.5ZM109.29 109.5H109.257V112H109.29V109.5ZM109.257 109.5H109.224V112H109.257V109.5ZM109.224 109.5H109.192V112H109.224V109.5ZM109.192 109.5H109.159V112H109.192V109.5ZM109.159 109.5H109.126V112H109.159V109.5ZM109.126 109.5H109.093V112H109.126V109.5ZM109.093 109.5H109.061V112H109.093V109.5ZM109.061 109.5H109.028V112H109.061V109.5ZM109.028 109.5H108.996V112H109.028V109.5ZM108.996 109.5H108.963V112H108.996V109.5ZM108.963 109.5H108.931V112H108.963V109.5ZM108.931 109.5H108.899V112H108.931V109.5ZM108.899 109.5H108.867V112H108.899V109.5ZM108.867 109.5H108.834V112H108.867V109.5ZM108.834 109.5H108.802V112H108.834V109.5ZM108.802 109.5H108.77V112H108.802V109.5ZM108.77 109.5H108.738V112H108.77V109.5ZM108.738 109.5H108.706V112H108.738V109.5ZM108.706 109.5H108.675V112H108.706V109.5ZM108.675 109.5H108.643V112H108.675V109.5ZM108.643 109.5H108.611V112H108.643V109.5ZM108.611 109.5H108.579V112H108.611V109.5ZM108.579 109.5H108.548V112H108.579V109.5ZM108.548 109.5H108.516V112H108.548V109.5ZM108.516 109.5H108.485V112H108.516V109.5ZM108.485 109.5H108.454V112H108.485V109.5ZM108.454 109.5H108.422V112H108.454V109.5ZM108.422 109.5H108.391V112H108.422V109.5ZM108.391 109.5H108.36V112H108.391V109.5ZM108.36 109.5H108.329V112H108.36V109.5ZM108.329 109.5H108.298V112H108.329V109.5ZM108.298 109.5H108.267V112H108.298V109.5ZM108.267 109.5H108.236V112H108.267V109.5ZM108.236 109.5H108.205V112H108.236V109.5ZM108.205 109.5H108.174V112H108.205V109.5ZM108.174 109.5H108.143V112H108.174V109.5ZM108.143 109.5H108.113V112H108.143V109.5ZM108.113 109.5H108.082V112H108.113V109.5ZM108.082 109.5H108.052V112H108.082V109.5ZM108.052 109.5H108.021V112H108.052V109.5ZM108.021 109.5H107.991V112H108.021V109.5ZM107.991 109.5H107.96V112H107.991V109.5ZM107.96 109.5H107.93V112H107.96V109.5ZM107.93 109.5H107.9V112H107.93V109.5ZM107.9 109.5H107.87V112H107.9V109.5ZM107.87 109.5H107.84V112H107.87V109.5ZM107.84 109.5H107.81V112H107.84V109.5ZM107.81 109.5H107.78V112H107.81V109.5ZM107.78 109.5H107.75V112H107.78V109.5ZM107.75 109.5H107.721V112H107.75V109.5ZM107.721 109.5H107.691V112H107.721V109.5ZM107.691 109.5H107.661V112H107.691V109.5ZM107.661 109.5H107.632V112H107.661V109.5ZM107.632 109.5H107.602V112H107.632V109.5ZM107.602 109.5H107.573V112H107.602V109.5ZM107.573 109.5H107.544V112H107.573V109.5ZM107.544 109.5H107.514V112H107.544V109.5ZM107.514 109.5H107.485V112H107.514V109.5ZM107.485 109.5H107.456V112H107.485V109.5ZM107.456 109.5H107.427V112H107.456V109.5ZM107.427 109.5H107.398V112H107.427V109.5ZM107.398 109.5H107.369V112H107.398V109.5ZM107.369 109.5H107.34V112H107.369V109.5ZM107.34 109.5H107.312V112H107.34V109.5ZM107.312 109.5H107.283V112H107.312V109.5ZM107.283 109.5H107.254V112H107.283V109.5ZM107.254 109.5H107.226V112H107.254V109.5ZM107.226 109.5H107.197V112H107.226V109.5ZM107.197 109.5H107.169V112H107.197V109.5ZM107.169 109.5H107.141V112H107.169V109.5ZM107.141 109.5H107.113V112H107.141V109.5ZM107.113 109.5H107.085V112H107.113V109.5ZM107.085 109.5H107.056V112H107.085V109.5ZM107.056 109.5H107.028V112H107.056V109.5ZM107.028 109.5H107.001V112H107.028V109.5ZM107.001 109.5H106.973V112H107.001V109.5ZM106.973 109.5H106.945V112H106.973V109.5ZM106.945 109.5H106.917V112H106.945V109.5ZM106.917 109.5H106.89V112H106.917V109.5ZM106.89 109.5H106.862V112H106.89V109.5ZM106.862 109.5H106.835V112H106.862V109.5ZM106.835 109.5H106.807V112H106.835V109.5ZM106.807 109.5H106.78V112H106.807V109.5ZM106.78 109.5H106.753V112H106.78V109.5ZM106.753 109.5H106.726V112H106.753V109.5ZM106.726 109.5H106.699V112H106.726V109.5ZM106.699 109.5H106.672V112H106.699V109.5ZM106.672 109.5H106.645V112H106.672V109.5ZM106.645 109.5H106.618V112H106.645V109.5ZM106.618 109.5H106.591V112H106.618V109.5ZM106.591 109.5H106.565V112H106.591V109.5ZM106.565 109.5H106.538V112H106.565V109.5ZM106.538 109.5H106.512V112H106.538V109.5ZM106.512 109.5H106.485V112H106.512V109.5ZM106.485 109.5H106.459V112H106.485V109.5ZM106.459 109.5H106.433V112H106.459V109.5ZM106.433 109.5H106.407V112H106.433V109.5ZM106.407 109.5H106.381V112H106.407V109.5ZM106.381 109.5H106.355V112H106.381V109.5ZM106.355 109.5H106.329V112H106.355V109.5ZM106.329 109.5H106.303V112H106.329V109.5ZM106.303 109.5H106.277V112H106.303V109.5ZM106.277 109.5H106.251V112H106.277V109.5ZM106.251 109.5H106.226V112H106.251V109.5ZM106.226 109.5H106.2V112H106.226V109.5ZM106.2 109.5H106.175V112H106.2V109.5ZM106.175 109.5H106.15V112H106.175V109.5ZM106.15 109.5H106.124V112H106.15V109.5ZM106.124 109.5H106.099V112H106.124V109.5ZM106.099 109.5H106.074V112H106.099V109.5ZM106.074 109.5H106.049V112H106.074V109.5ZM106.049 109.5H106.024V112H106.049V109.5ZM106.024 109.5H105.999V112H106.024V109.5ZM105.999 109.5H105.975V112H105.999V109.5ZM105.975 109.5H105.95V112H105.975V109.5ZM105.95 109.5H105.925V112H105.95V109.5ZM105.925 109.5H105.901V112H105.925V109.5ZM105.901 109.5H105.876V112H105.901V109.5ZM105.876 109.5H105.852V112H105.876V109.5ZM105.852 109.5H105.828V112H105.852V109.5ZM105.828 109.5H105.804V112H105.828V109.5ZM105.804 109.5H105.78V112H105.804V109.5ZM105.78 109.5H105.756V112H105.78V109.5ZM105.756 109.5H105.732V112H105.756V109.5ZM105.732 109.5H105.708V112H105.732V109.5ZM105.708 109.5H105.684V112H105.708V109.5ZM105.684 109.5H105.661V112H105.684V109.5ZM105.661 109.5H105.637V112H105.661V109.5ZM105.637 109.5H105.614V112H105.637V109.5ZM105.614 109.5H105.59V112H105.614V109.5ZM105.59 109.5H105.567V112H105.59V109.5ZM105.567 109.5H105.544V112H105.567V109.5ZM105.544 109.5H105.521V112H105.544V109.5ZM105.521 109.5H105.498V112H105.521V109.5ZM105.498 109.5H105.475V112H105.498V109.5ZM105.475 109.5H105.452V112H105.475V109.5ZM105.452 109.5H105.429V112H105.452V109.5ZM105.429 109.5H105.407V112H105.429V109.5ZM105.407 109.5H105.384V112H105.407V109.5ZM105.384 109.5H105.362V112H105.384V109.5ZM105.362 109.5H105.339V112H105.362V109.5ZM105.339 109.5H105.317V112H105.339V109.5ZM105.317 109.5H105.295V112H105.317V109.5ZM105.295 109.5H105.273V112H105.295V109.5ZM105.273 109.5H105.251V112H105.273V109.5ZM105.251 109.5H105.229V112H105.251V109.5ZM105.229 109.5H105.207V112H105.229V109.5ZM105.207 109.5H105.186V112H105.207V109.5ZM105.186 109.5H105.164V112H105.186V109.5ZM105.164 109.5H105.142V112H105.164V109.5ZM105.142 109.5H105.121V112H105.142V109.5ZM105.121 109.5H105.1V112H105.121V109.5ZM105.1 109.5H105.078V112H105.1V109.5ZM105.078 109.5H105.057V112H105.078V109.5ZM105.057 109.5H105.036V112H105.057V109.5ZM105.036 109.5H105.015V112H105.036V109.5ZM105.015 109.5H104.994V112H105.015V109.5ZM104.994 109.5H104.974V112H104.994V109.5ZM104.974 109.5H104.953V112H104.974V109.5ZM104.953 109.5H104.932V112H104.953V109.5ZM104.932 109.5H104.912V112H104.932V109.5ZM104.912 109.5H104.891V112H104.912V109.5ZM104.891 109.5H104.871V112H104.891V109.5ZM104.871 109.5H104.851V112H104.871V109.5ZM104.851 109.5H104.831V112H104.851V109.5ZM104.831 109.5H104.811V112H104.831V109.5ZM104.811 109.5H104.791V112H104.811V109.5ZM104.791 109.5H104.771V112H104.791V109.5ZM104.771 109.5H104.751V112H104.771V109.5ZM104.751 109.5H104.732V112H104.751V109.5ZM104.732 109.5H104.712V112H104.732V109.5ZM104.712 109.5H104.693V112H104.712V109.5ZM104.693 109.5H104.673V112H104.693V109.5ZM104.673 109.5H104.654V112H104.673V109.5ZM104.654 109.5H104.635V112H104.654V109.5ZM104.635 109.5H104.616V112H104.635V109.5ZM104.616 109.5H104.597V112H104.616V109.5ZM104.597 109.5H104.578V112H104.597V109.5ZM104.578 109.5H104.56V112H104.578V109.5ZM104.56 109.5H104.541V112H104.56V109.5ZM104.541 109.5H104.522V112H104.541V109.5ZM104.522 109.5H104.504V112H104.522V109.5ZM104.504 109.5H104.486V112H104.504V109.5ZM104.486 109.5H104.467V112H104.486V109.5ZM104.467 109.5H104.449V112H104.467V109.5ZM104.449 109.5H104.431V112H104.449V109.5ZM104.431 109.5H104.413V112H104.431V109.5ZM104.413 109.5H104.395V112H104.413V109.5ZM104.395 109.5H104.378V112H104.395V109.5ZM104.378 109.5H104.36V112H104.378V109.5ZM104.36 109.5H104.343V112H104.36V109.5ZM104.343 109.5H104.325V112H104.343V109.5ZM104.325 109.5H104.308V112H104.325V109.5ZM104.308 109.5H104.291V112H104.308V109.5ZM104.291 109.5H104.274V112H104.291V109.5ZM104.274 109.5H104.257V112H104.274V109.5ZM104.257 109.5H104.24V112H104.257V109.5ZM104.24 109.5H104.223V112H104.24V109.5ZM104.223 109.5H104.206V112H104.223V109.5ZM104.206 109.5H104.19V112H104.206V109.5ZM104.19 109.5H104.173V112H104.19V109.5ZM104.173 109.5H104.157V112H104.173V109.5ZM104.157 109.5H104.14V112H104.157V109.5ZM104.14 109.5H104.124V112H104.14V109.5ZM104.124 109.5H104.108V112H104.124V109.5ZM104.108 109.5H104.092V112H104.108V109.5ZM104.092 109.5H104.076V112H104.092V109.5ZM104.076 109.5H104.061V112H104.076V109.5ZM104.061 109.5H104.045V112H104.061V109.5ZM104.045 109.5H104.03V112H104.045V109.5ZM104.03 109.5H104.014V112H104.03V109.5ZM104.014 109.5H103.999V112H104.014V109.5ZM103.999 109.5H103.984V112H103.999V109.5ZM103.984 109.5H103.968V112H103.984V109.5ZM103.968 109.5H103.953V112H103.968V109.5ZM103.953 109.5H103.939V112H103.953V109.5ZM103.939 109.5H103.924V112H103.939V109.5ZM103.924 109.5H103.909V112H103.924V109.5ZM103.909 109.5H103.895V112H103.909V109.5ZM103.895 109.5H103.88V112H103.895V109.5ZM103.88 109.5H103.866V112H103.88V109.5ZM103.866 109.5H103.852V112H103.866V109.5ZM103.852 109.5H103.837V112H103.852V109.5ZM103.837 109.5H103.823V112H103.837V109.5ZM103.823 109.5H103.809V112H103.823V109.5ZM103.809 109.5H103.796V112H103.809V109.5ZM103.796 109.5H103.782V112H103.796V109.5ZM103.782 109.5H103.768V112H103.782V109.5ZM103.768 109.5H103.755V112H103.768V109.5ZM103.755 109.5H103.742V112H103.755V109.5ZM103.742 109.5H103.728V112H103.742V109.5ZM103.728 109.5H103.715V112H103.728V109.5ZM103.715 109.5H103.702V112H103.715V109.5ZM103.702 109.5H103.689V112H103.702V109.5ZM103.689 109.5H103.676V112H103.689V109.5ZM103.676 109.5H103.664V112H103.676V109.5ZM103.664 109.5H103.651V112H103.664V109.5ZM103.651 109.5H103.639V112H103.651V109.5ZM103.639 109.5H103.626V112H103.639V109.5ZM103.626 109.5H103.614V112H103.626V109.5ZM103.614 109.5H103.602V112H103.614V109.5ZM103.602 109.5H103.59V112H103.602V109.5ZM103.59 109.5H103.578V112H103.59V109.5ZM103.578 109.5H103.566V112H103.578V109.5ZM103.566 109.5H103.555V112H103.566V109.5ZM103.555 109.5H103.543V112H103.555V109.5ZM103.543 109.5H103.532V112H103.543V109.5ZM103.532 109.5H103.52V112H103.532V109.5ZM103.52 109.5H103.509V112H103.52V109.5ZM103.509 109.5H103.498V112H103.509V109.5ZM103.498 109.5H103.487V112H103.498V109.5ZM103.487 109.5H103.476V112H103.487V109.5ZM103.476 109.5H103.465V112H103.476V109.5ZM103.465 109.5H103.455V112H103.465V109.5ZM103.455 109.5H103.444V112H103.455V109.5ZM103.444 109.5H103.434V112H103.444V109.5ZM103.434 109.5H103.424V112H103.434V109.5ZM103.424 109.5H103.414V112H103.424V109.5ZM103.414 109.5H103.403V112H103.414V109.5ZM103.403 109.5H103.394V112H103.403V109.5ZM103.394 109.5H103.384V112H103.394V109.5ZM103.384 109.5H103.374V112H103.384V109.5ZM103.374 109.5H103.364V112H103.374V109.5ZM103.364 109.5H103.355V112H103.364V109.5ZM103.355 109.5H103.346V112H103.355V109.5ZM103.346 109.5H103.336V112H103.346V109.5ZM103.336 109.5H103.327V112H103.336V109.5ZM103.327 109.5H103.318V112H103.327V109.5ZM103.318 109.5H103.31V112H103.318V109.5ZM103.31 109.5H103.301V112H103.31V109.5ZM103.301 109.5H103.292V112H103.301V109.5ZM103.292 109.5H103.284V112H103.292V109.5ZM103.284 109.5H103.275V112H103.284V109.5ZM103.275 109.5H103.267V112H103.275V109.5ZM103.267 109.5H103.259V112H103.267V109.5ZM103.259 109.5H103.251V112H103.259V109.5ZM103.251 109.5H103.243V112H103.251V109.5ZM103.243 109.5H103.235V112H103.243V109.5ZM103.235 109.5H103.228V112H103.235V109.5ZM103.228 109.5H103.22V112H103.228V109.5ZM103.22 109.5H103.213V112H103.22V109.5ZM103.213 109.5H103.205V112H103.213V109.5ZM103.205 109.5H103.198V112H103.205V109.5ZM103.198 109.5H103.191V112H103.198V109.5ZM103.191 109.5H103.184V112H103.191V109.5ZM103.184 109.5H103.178V112H103.184V109.5ZM103.178 109.5H103.171V112H103.178V109.5ZM103.171 109.5H103.164V112H103.171V109.5ZM103.164 109.5H103.158V112H103.164V109.5ZM103.158 109.5H103.152V112H103.158V109.5ZM103.152 109.5H103.145V112H103.152V109.5ZM103.145 109.5H103.139V112H103.145V109.5ZM103.139 109.5H103.133V112H103.139V109.5ZM103.133 109.5H103.128V112H103.133V109.5ZM103.128 109.5H103.122V112H103.128V109.5ZM103.122 109.5H103.116V112H103.122V109.5ZM103.116 109.5H103.111V112H103.116V109.5ZM103.111 109.5H103.106V112H103.111V109.5ZM103.106 109.5H103.101V112H103.106V109.5ZM103.101 109.5H103.096V112H103.101V109.5ZM103.096 109.5H103.091V112H103.096V109.5ZM103.091 109.5H103.086V112H103.091V109.5ZM103.086 109.5H103.081V112H103.086V109.5ZM103.081 109.5H103.077V112H103.081V109.5ZM103.077 109.5H103.072V112H103.077V109.5ZM103.072 109.5H103.068V112H103.072V109.5ZM103.068 109.5H103.064V112H103.068V109.5ZM103.064 109.5H103.06V112H103.064V109.5ZM103.06 109.5H103.056V112H103.06V109.5ZM103.056 109.5H103.052V112H103.056V109.5ZM103.052 109.5H103.049V112H103.052V109.5ZM103.049 109.5H103.045V112H103.049V109.5ZM103.045 109.5H103.042V112H103.045V109.5ZM103.042 109.5H103.038V112H103.042V109.5ZM103.038 109.5H103.035V112H103.038V109.5ZM103.035 109.5H103.032V112H103.035V109.5ZM103.032 109.5H103.029V112H103.032V109.5ZM103.029 109.5H103.027V112H103.029V109.5ZM103.027 109.5H103.024V112H103.027V109.5ZM103.024 109.5H103.022V112H103.024V109.5ZM103.022 109.5H103.019V112H103.022V109.5ZM103.019 109.5H103.017V112H103.019V109.5ZM103.017 109.5H103.015V112H103.017V109.5ZM103.015 109.5H103.013V112H103.015V109.5ZM103.013 109.5H103.011V112H103.013V109.5ZM103.011 109.5H103.01V112H103.011V109.5ZM103.01 109.5H103.008V112H103.01V109.5ZM103.008 109.5H103.007V112H103.008V109.5ZM103.007 109.5H103.005V112H103.007V109.5ZM103.005 109.5H103.004V112H103.005V109.5ZM103.004 109.5H103.003V112H103.004V109.5ZM103.003 109.5H103.002V112H103.003V109.5ZM103.002 109.5H103.002V112H103.002V109.5ZM103.002 109.5H103.001V112H103.002V109.5ZM103.001 109.5H103.001V112H103.001V109.5ZM103.001 109.5H103V112H103.001V109.5ZM103 109.5H103V112H103V109.5ZM101.75 110.75L101.75 112L104.25 112L104.25 110.75L101.75 110.75Z" fill="#F19528"/>
<path d="M103.933 58.471L103 59.3027L103 59.3027L103.933 58.471ZM115.033 70.9241L115.966 70.0924L115.966 70.0924L115.033 70.9241ZM114.931 72.689L115.763 73.6221L115.763 73.6221L114.931 72.689ZM113.166 72.5876L112.233 73.4193L112.233 73.4193L113.166 72.5876ZM102.067 60.1345L103 59.3027L103 59.3027L102.067 60.1345ZM155.931 58.3696L156.763 57.4365L156.763 57.4365L155.931 58.3696ZM154.166 58.471L153.233 57.6393L153.233 57.6393L154.166 58.471ZM156.033 60.1345L156.966 60.9662L156.966 60.9662L156.033 60.1345ZM144.933 72.5876L145.866 73.4193L145.866 73.4193L144.933 72.5876ZM143.168 72.689L142.337 73.6221L142.337 73.6221L143.168 72.689ZM143.067 70.9241L142.134 70.0924L142.134 70.0924L143.067 70.9241ZM131.6 55C131.6 53.6193 130.48 52.5 129.1 52.5V55H131.6ZM131.6 71.7559V55H129.1V71.7559H131.6ZM129.1 74.2559C130.48 74.2559 131.6 73.1366 131.6 71.7559H129.1V74.2559ZM126.6 71.7559C126.6 73.1366 127.719 74.2559 129.1 74.2559V71.7559H126.6ZM126.6 55V71.7559H129.1V55H126.6ZM129.1 52.5C127.719 52.5 126.6 53.6193 126.6 55H129.1V52.5ZM104.866 57.6393C103.948 56.6086 102.367 56.5178 101.337 57.4365L103 59.3027L103 59.3027L104.866 57.6393ZM115.966 70.0924L104.866 57.6393L103 59.3027L114.1 71.7559L115.966 70.0924ZM115.763 73.6221C116.794 72.7034 116.885 71.1231 115.966 70.0924L114.1 71.7559L114.1 71.7559L115.763 73.6221ZM112.233 73.4193C113.152 74.45 114.732 74.5408 115.763 73.6221L114.1 71.7559L114.1 71.7559L112.233 73.4193ZM101.134 60.9662L112.233 73.4193L114.1 71.7559L103 59.3027L101.134 60.9662ZM101.337 57.4365C100.306 58.3551 100.215 59.9355 101.134 60.9662L103 59.3027L103 59.3027L101.337 57.4365ZM156.763 57.4365C155.732 56.5178 154.152 56.6086 153.233 57.6393L155.1 59.3027L155.1 59.3027L156.763 57.4365ZM156.966 60.9662C157.885 59.9355 157.794 58.3551 156.763 57.4365L155.1 59.3027L155.1 59.3027L156.966 60.9662ZM145.866 73.4193L156.966 60.9662L155.1 59.3027L144 71.7559L145.866 73.4193ZM142.337 73.6221C143.367 74.5408 144.948 74.45 145.866 73.4193L144 71.7559L144 71.7559L142.337 73.6221ZM142.134 70.0924C141.215 71.1231 141.306 72.7034 142.337 73.6221L144 71.7559L144 71.7559L142.134 70.0924ZM153.233 57.6393L142.134 70.0924L144 71.7559L155.1 59.3027L153.233 57.6393Z" fill="#EAD08E"/>
</svg>
