<?xml version="1.0" encoding="utf-8"?>
<!-- Generator: Adobe Illustrator 24.3.0, SVG Export Plug-In . SVG Version: 6.00 Build 0)  -->
<svg version="1.1" id="Layer_1" xmlns="http://www.w3.org/2000/svg" xmlns:xlink="http://www.w3.org/1999/xlink" x="0px" y="0px"
	 viewBox="0 0 300 300" enable-background="new 0 0 300 300" xml:space="preserve">
<g>
	<g>
		<g>
			<path fill="#FFDA88" d="M533.992,1679.76c0,5.123-4.151,9.271-9.27,9.271h-102.53c-5.119,0-9.27-4.149-9.27-9.271l0,0
				c0-5.12,4.152-9.269,9.27-9.269h102.53C529.84,1670.491,533.992,1674.639,533.992,1679.76L533.992,1679.76z"/>
		</g>
		<g>
			<path fill="#FFE2A9" d="M426.132,1679.76c0-5.12,4.151-9.269,9.27-9.269h-13.21c-5.119,0-9.27,4.149-9.27,9.269
				c0,5.123,4.152,9.271,9.27,9.271h13.21C430.283,1689.031,426.132,1684.882,426.132,1679.76z"/>
		</g>
		<g>
			<path fill="#AA6148" d="M473.456,1619.223c-28.313,0-51.266,22.952-51.266,51.268h102.533
				C524.723,1642.174,501.77,1619.223,473.456,1619.223z"/>
		</g>
		<g>
			<path fill="#BC715C" d="M478.693,1619.489c-1.722-0.177-3.468-0.266-5.237-0.266c-28.313,0-51.266,22.952-51.266,51.268h10.475
				C432.664,1643.943,452.841,1622.111,478.693,1619.489z"/>
		</g>
		<g>
			<path fill="#FFDA88" d="M473.746,1619.223c1.995,0,3.954,0.142,5.889,0.363v-20.651l17.448-17.448l-7.718-7.715l-20.619,20.619
				h-0.024v25.086C470.375,1619.314,472.05,1619.223,473.746,1619.223z"/>
		</g>
		<g>
			<path fill="#FFE2A9" d="M475.791,1595.158l17.479-17.483l-3.905-3.903l-20.619,20.619h-0.024v25.086
				c1.654-0.162,3.328-0.254,5.024-0.254c0.688,0,1.366,0.035,2.045,0.068V1595.158z"/>
		</g>
		<g>
			<polygon fill="#AA6148" points="524.722,1689.031 422.191,1689.031 424.815,1713.958 522.098,1713.958 			"/>
		</g>
		<g>
			<polygon fill="#AA6148" points="435.518,1815.659 511.395,1815.659 514.248,1788.541 432.664,1788.541 			"/>
		</g>
		<g>
			<polygon fill="#FFDA88" points="421.033,1713.958 430.103,1788.541 516.81,1788.541 525.881,1713.958 			"/>
		</g>
		<g>
			<polygon fill="#BC715C" points="422.191,1689.031 424.815,1713.958 436.447,1713.958 433.823,1689.031 			"/>
		</g>
		<g>
			<polygon fill="#BC715C" points="432.664,1788.541 435.518,1815.659 447.151,1815.659 444.297,1788.541 			"/>
		</g>
		<g>
			<polygon fill="#FFE2A9" points="421.033,1713.958 430.103,1788.541 441.735,1788.541 432.664,1713.958 			"/>
		</g>
		<g>
			<path fill="#AA6148" d="M486.096,1764.219c-9.933,9.939-23.687,12.295-30.711,5.274c-7.019-7.027-4.662-20.775,5.276-30.711
				c9.933-9.936,23.681-12.298,30.708-5.271C498.394,1740.535,496.034,1754.286,486.096,1764.219z"/>
		</g>
		<g>
			<path fill="#BC715C" d="M465.728,1743.432c8.569-8.569,19.96-11.486,27.443-7.63c-0.526-0.845-1.119-1.651-1.837-2.368
				c-7.027-7.024-20.775-4.665-30.708,5.274c-9.939,9.933-12.295,23.684-5.276,30.708c0.965,0.968,2.07,1.742,3.265,2.356
				C454.017,1764.329,456.805,1752.349,465.728,1743.432z"/>
		</g>
		<g>
			<g>
				<path fill="#BC715C" d="M458.222,1770.686c-2.289,0-4.175-1.828-4.246-4.14c-0.071-2.362,1.768-4.329,4.119-4.405l0.546-0.018
					c6.945-0.207,10.113-0.301,11.395-11.832c1.719-15.523,13.128-18.511,18.921-17.902c2.338,0.236,4.039,2.336,3.803,4.683
					c-0.236,2.336-2.297,4.036-4.624,3.821c-1.417-0.109-8.495-0.106-9.655,10.346c-2.097,18.903-12.207,19.204-19.589,19.429
					l-0.537,0.018C458.311,1770.686,458.266,1770.686,458.222,1770.686z"/>
			</g>
		</g>
		<g>
			<path fill="#FFDA88" d="M400.62,1731.728c1.624,1.624,1.622,4.258,0,5.879l0,0c-1.624,1.627-4.255,1.627-5.879,0l-4.634-4.633
				c-1.624-1.624-1.624-4.255,0-5.879l0,0c1.623-1.621,4.256-1.624,5.881,0L400.62,1731.728z"/>
		</g>
		<g>
			<path fill="#FFDA88" d="M394.74,1755.089c1.624-1.624,4.258-1.621,5.879,0l0,0c1.627,1.624,1.627,4.255,0,5.879l-4.633,4.636
				c-1.624,1.624-4.255,1.624-5.879,0l0,0c-1.621-1.624-1.624-4.258,0-5.882L394.74,1755.089z"/>
		</g>
		<g>
			<path fill="#FFDA88" d="M548.42,1731.728c-1.624,1.624-1.622,4.258,0,5.879l0,0c1.624,1.627,4.255,1.627,5.879,0l4.635-4.633
				c1.624-1.624,1.624-4.255,0-5.879l0,0c-1.623-1.621-4.257-1.624-5.881,0L548.42,1731.728z"/>
		</g>
		<g>
			<path fill="#FFDA88" d="M554.301,1755.089c-1.624-1.624-4.258-1.621-5.879,0l0,0c-1.627,1.624-1.627,4.255,0,5.879l4.633,4.636
				c1.624,1.624,4.255,1.624,5.879,0l0,0c1.621-1.624,1.624-4.258,0-5.882L554.301,1755.089z"/>
		</g>
	</g>
	<g>
		<g>
			<path fill="#161616" d="M524.722,1693.566h-102.53c-7.612,0-13.806-6.195-13.806-13.807c0-7.612,6.193-13.804,13.806-13.804
				h102.53c7.612,0,13.805,6.192,13.805,13.804C538.527,1687.372,532.334,1693.566,524.722,1693.566z M422.191,1675.026
				c-2.61,0-4.735,2.123-4.735,4.733s2.124,4.736,4.735,4.736h102.53c2.61,0,4.735-2.126,4.735-4.736s-2.125-4.733-4.735-4.733
				H422.191z"/>
		</g>
		<g>
			<path fill="#161616" d="M524.723,1675.026H422.19c-2.505,0-4.535-2.031-4.535-4.535c0-30.77,25.033-55.804,55.802-55.804
				c10.433,0,20.656,2.95,29.56,8.527c2.123,1.332,2.765,4.131,1.435,6.254c-1.329,2.123-4.125,2.761-6.251,1.435
				c-7.46-4.674-16.016-7.146-24.744-7.146c-24.238,0-44.225,18.549-46.513,42.197h93.026c-0.757-7.837-3.474-15.322-7.969-21.871
				c-1.417-2.064-0.892-4.887,1.172-6.304c2.067-1.423,4.888-0.895,6.307,1.172c6.397,9.319,9.78,20.226,9.78,31.538
				C529.259,1672.995,527.229,1675.026,524.723,1675.026z"/>
		</g>
		<g>
			<path fill="#161616" d="M479.635,1624.121c-0.171,0-0.344-0.009-0.515-0.03c-3.709-0.422-6.62-0.434-9.955-0.1
				c-1.264,0.133-2.542-0.295-3.489-1.155c-0.949-0.859-1.49-2.082-1.49-3.36v-25.086c0-1.394,0.627-2.64,1.617-3.472l20.355-20.353
				c1.772-1.772,4.642-1.772,6.413,0l7.718,7.715c0.85,0.85,1.329,2.002,1.329,3.207c0,1.202-0.478,2.356-1.329,3.207
				l-16.119,16.119v18.773c0,1.293-0.552,2.525-1.516,3.384C481.819,1623.717,480.742,1624.121,479.635,1624.121z M473.746,1614.687
				c0.446,0,0.898,0.006,1.354,0.021v-15.773c0-1.202,0.478-2.356,1.329-3.207l14.24-14.241l-1.304-1.302l-16.107,16.107v18.398
				C473.421,1614.687,473.583,1614.687,473.746,1614.687z"/>
		</g>
		<g>
			<path fill="#161616" d="M522.098,1718.493h-97.284c-2.321,0-4.268-1.751-4.51-4.06l-2.624-24.927
				c-0.134-1.278,0.279-2.554,1.14-3.511c0.859-0.954,2.085-1.5,3.371-1.5h102.53c1.286,0,2.511,0.546,3.37,1.5
				c0.861,0.957,1.274,2.232,1.14,3.511l-2.624,24.927C526.367,1716.742,524.419,1718.493,522.098,1718.493z M428.898,1709.423
				h89.116l1.67-15.856h-92.456L428.898,1709.423z"/>
		</g>
		<g>
			<path fill="#161616" d="M511.395,1820.194h-40.609c-2.505,0-4.535-2.031-4.535-4.535s2.03-4.535,4.535-4.535h36.525l1.9-18.047
				h-71.509l1.9,18.047h10.261c2.505,0,4.535,2.031,4.535,4.535s-2.03,4.535-4.535,4.535h-14.344c-2.321,0-4.268-1.751-4.51-4.06
				l-2.854-27.118c-0.134-1.279,0.279-2.554,1.14-3.511c0.859-0.954,2.085-1.5,3.371-1.5h81.584c1.286,0,2.511,0.546,3.371,1.5
				c0.861,0.957,1.274,2.232,1.14,3.511l-2.854,27.118C515.663,1818.443,513.716,1820.194,511.395,1820.194z"/>
		</g>
		<g>
			<path fill="#161616" d="M516.81,1793.076h-86.707c-2.293,0-4.225-1.713-4.503-3.989l-9.071-74.583
				c-0.157-1.287,0.246-2.581,1.107-3.552c0.861-0.974,2.098-1.53,3.396-1.53h104.848c1.298,0,2.535,0.555,3.396,1.53
				c0.861,0.971,1.264,2.265,1.107,3.552l-9.071,74.583C521.035,1791.364,519.103,1793.076,516.81,1793.076z M434.12,1784.005
				h78.672l7.968-65.512h-94.608L434.12,1784.005z"/>
		</g>
		<g>
			<path fill="#161616" d="M466.035,1778.127c-5.321,0-10.215-1.769-13.875-5.427c-8.928-8.935-6.61-25.243,5.275-37.128
				c11.888-11.882,28.193-14.203,37.123-5.271c4.469,4.468,6.239,10.946,4.987,18.239c-1.153,6.717-4.797,13.423-10.261,18.886
				C482.269,1774.445,473.707,1778.127,466.035,1778.127z M480.75,1733.998c-5.312,0-11.75,2.838-16.901,7.987
				c-8.012,8.014-10.428,19.143-5.274,24.301c5.161,5.161,16.287,2.743,24.295-5.274c0.001,0,0.001,0,0.001,0
				c4.149-4.149,6.896-9.124,7.735-14.008c0.74-4.308-0.134-7.964-2.461-10.29C486.304,1734.875,483.701,1733.998,480.75,1733.998z"
				/>
		</g>
		<g>
			<path fill="#161616" d="M457.298,1771.359c-2.439,0-4.454-1.94-4.531-4.394c-0.077-2.504,1.89-4.597,4.394-4.674l1.329-0.035
				c7.147-0.174,10.106-0.245,11.412-11.964c0.741-6.658,3.245-11.64,7.439-14.808c5.756-4.343,12.313-3.387,13.044-3.275
				c2.47,0.416,4.137,2.755,3.722,5.223c-0.412,2.457-2.731,4.122-5.179,3.729c-0.156-0.018-3.54-0.434-6.189,1.612
				c-2.086,1.615-3.372,4.482-3.822,8.522c-2.184,19.591-12.602,19.845-20.208,20.028l-1.267,0.032
				C457.394,1771.359,457.345,1771.359,457.298,1771.359z"/>
		</g>
		<g>
			<path fill="#161616" d="M400.62,1731.728c1.624,1.624,1.622,4.258,0,5.879l0,0c-1.624,1.627-4.255,1.627-5.879,0l-4.634-4.633
				c-1.624-1.624-1.624-4.255,0-5.879l0,0c1.623-1.621,4.256-1.624,5.881,0L400.62,1731.728z"/>
		</g>
		<g>
			<path fill="#161616" d="M394.74,1755.089c1.624-1.624,4.258-1.621,5.879,0l0,0c1.627,1.624,1.627,4.255,0,5.879l-4.633,4.636
				c-1.624,1.624-4.255,1.624-5.879,0l0,0c-1.621-1.624-1.624-4.258,0-5.882L394.74,1755.089z"/>
		</g>
		<g>
			<path fill="#161616" d="M548.42,1731.728c-1.624,1.624-1.622,4.258,0,5.879l0,0c1.624,1.627,4.255,1.627,5.879,0l4.635-4.633
				c1.624-1.624,1.624-4.255,0-5.879l0,0c-1.623-1.621-4.257-1.624-5.881,0L548.42,1731.728z"/>
		</g>
		<g>
			<path fill="#161616" d="M554.301,1755.089c-1.624-1.624-4.258-1.621-5.879,0l0,0c-1.627,1.624-1.627,4.255,0,5.879l4.633,4.636
				c1.624,1.624,4.255,1.624,5.879,0l0,0c1.621-1.624,1.624-4.258,0-5.882L554.301,1755.089z"/>
		</g>
	</g>
</g>
<g>
	<g>
		<g>
			<path fill="#FFDA88" d="M209.471,135.045c0,5.123-4.151,9.271-9.27,9.271H97.671c-5.119,0-9.27-4.149-9.27-9.271l0,0
				c0-5.12,4.152-9.269,9.27-9.269h102.53C205.32,125.776,209.471,129.924,209.471,135.045L209.471,135.045z"/>
		</g>
		<g>
			<path fill="#FFE2A9" d="M101.612,135.045c0-5.12,4.151-9.269,9.27-9.269h-13.21c-5.119,0-9.27,4.149-9.27,9.269
				c0,5.123,4.152,9.271,9.27,9.271h13.21C105.763,144.316,101.612,140.167,101.612,135.045z"/>
		</g>
		<g>
			<path fill="#AA6148" d="M148.936,74.508c-28.313,0-51.266,22.951-51.266,51.268h102.533
				C200.203,97.459,177.25,74.508,148.936,74.508z"/>
		</g>
		<g>
			<path fill="#BC715C" d="M154.173,74.773c-1.722-0.177-3.468-0.266-5.237-0.266c-28.313,0-51.266,22.951-51.266,51.268h10.475
				C108.144,99.228,128.32,77.396,154.173,74.773z"/>
		</g>
		<g>
			<path fill="#FFDA88" d="M149.225,74.508c1.995,0,3.954,0.142,5.889,0.363V54.219l17.448-17.448l-7.718-7.715l-20.619,20.619
				h-0.024v25.086C145.855,74.599,147.529,74.508,149.225,74.508z"/>
		</g>
		<g>
			<path fill="#FFE2A9" d="M151.27,50.443l17.479-17.483l-3.905-3.903l-20.619,20.619h-0.024v25.086
				c1.654-0.162,3.328-0.254,5.024-0.254c0.688,0,1.366,0.035,2.045,0.068V50.443z"/>
		</g>
		<g>
			<polygon fill="#AA6148" points="200.201,144.316 97.671,144.316 100.294,169.243 197.578,169.243 			"/>
		</g>
		<g>
			<polygon fill="#AA6148" points="110.998,270.944 186.874,270.944 189.728,243.826 108.144,243.826 			"/>
		</g>
		<g>
			<polygon fill="#FFDA88" points="96.512,169.243 105.583,243.826 192.29,243.826 201.36,169.243 			"/>
		</g>
		<g>
			<polygon fill="#BC715C" points="97.671,144.316 100.294,169.243 111.927,169.243 109.303,144.316 			"/>
		</g>
		<g>
			<polygon fill="#BC715C" points="108.144,243.826 110.998,270.944 122.63,270.944 119.777,243.826 			"/>
		</g>
		<g>
			<polygon fill="#FFE2A9" points="96.512,169.243 105.583,243.826 117.215,243.826 108.144,169.243 			"/>
		</g>
		<g>
			<path fill="#AA6148" d="M161.575,219.504c-9.933,9.939-23.687,12.295-30.711,5.273c-7.019-7.028-4.662-20.775,5.276-30.711
				c9.933-9.936,23.681-12.298,30.709-5.271C173.874,195.82,171.514,209.571,161.575,219.504z"/>
		</g>
		<g>
			<path fill="#BC715C" d="M141.208,198.717c8.569-8.569,19.96-11.486,27.443-7.63c-0.526-0.844-1.119-1.651-1.837-2.368
				c-7.027-7.024-20.775-4.665-30.708,5.274c-9.939,9.933-12.295,23.684-5.276,30.708c0.965,0.968,2.07,1.742,3.265,2.356
				C129.497,219.614,132.284,207.634,141.208,198.717z"/>
		</g>
		<g>
			<g>
				<path fill="#BC715C" d="M133.702,225.971c-2.289,0-4.175-1.828-4.246-4.14c-0.071-2.362,1.768-4.329,4.119-4.405l0.546-0.018
					c6.945-0.207,10.113-0.301,11.395-11.832c1.719-15.523,13.128-18.511,18.921-17.902c2.338,0.236,4.039,2.336,3.803,4.683
					c-0.236,2.336-2.297,4.036-4.624,3.821c-1.417-0.109-8.495-0.106-9.655,10.346c-2.096,18.903-12.206,19.204-19.589,19.429
					l-0.537,0.018C133.79,225.971,133.746,225.971,133.702,225.971z"/>
			</g>
		</g>
		<g>
			<path fill="#FFDA88" d="M76.1,187.013c1.624,1.624,1.622,4.258,0,5.879l0,0c-1.624,1.627-4.255,1.627-5.879,0l-4.634-4.633
				c-1.624-1.624-1.624-4.255,0-5.879l0,0c1.623-1.621,4.256-1.624,5.881,0L76.1,187.013z"/>
		</g>
		<g>
			<path fill="#FFDA88" d="M70.22,210.374c1.624-1.624,4.258-1.621,5.879,0l0,0c1.627,1.624,1.627,4.255,0,5.879l-4.633,4.636
				c-1.624,1.624-4.255,1.624-5.879,0l0,0c-1.621-1.624-1.624-4.258,0-5.882L70.22,210.374z"/>
		</g>
		<g>
			<path fill="#FFDA88" d="M223.9,187.013c-1.624,1.624-1.622,4.258,0,5.879l0,0c1.624,1.627,4.255,1.627,5.879,0l4.635-4.633
				c1.624-1.624,1.624-4.255,0-5.879l0,0c-1.623-1.621-4.257-1.624-5.881,0L223.9,187.013z"/>
		</g>
		<g>
			<path fill="#FFDA88" d="M229.78,210.374c-1.624-1.624-4.258-1.621-5.879,0l0,0c-1.627,1.624-1.627,4.255,0,5.879l4.633,4.636
				c1.624,1.624,4.255,1.624,5.879,0l0,0c1.621-1.624,1.624-4.258,0-5.882L229.78,210.374z"/>
		</g>
	</g>
	<g>
		<g>
			<path fill="#161616" d="M200.202,148.851H97.671c-7.612,0-13.805-6.195-13.805-13.807c0-7.612,6.193-13.804,13.805-13.804
				h102.531c7.612,0,13.805,6.192,13.805,13.804C214.007,142.657,207.814,148.851,200.202,148.851z M97.671,130.311
				c-2.61,0-4.735,2.123-4.735,4.733c0,2.61,2.124,4.736,4.735,4.736h102.531c2.61,0,4.735-2.126,4.735-4.736
				c0-2.61-2.124-4.733-4.735-4.733H97.671z"/>
		</g>
		<g>
			<path fill="#161616" d="M200.203,130.311H97.67c-2.505,0-4.535-2.031-4.535-4.535c0-30.77,25.033-55.804,55.802-55.804
				c10.433,0,20.656,2.95,29.56,8.527c2.123,1.332,2.765,4.131,1.435,6.254c-1.329,2.123-4.125,2.761-6.251,1.435
				c-7.46-4.674-16.016-7.146-24.744-7.146c-24.237,0-44.224,18.549-46.513,42.198h93.026c-0.757-7.837-3.474-15.322-7.969-21.871
				c-1.417-2.064-0.892-4.887,1.172-6.304c2.067-1.423,4.888-0.895,6.307,1.172c6.397,9.319,9.78,20.226,9.78,31.538
				C204.738,128.28,202.708,130.311,200.203,130.311z"/>
		</g>
		<g>
			<path fill="#161616" d="M155.115,79.406c-0.171,0-0.344-0.009-0.515-0.03c-3.709-0.422-6.62-0.434-9.955-0.1
				c-1.264,0.133-2.542-0.295-3.489-1.155c-0.949-0.859-1.49-2.082-1.49-3.36V49.675c0-1.394,0.627-2.64,1.617-3.472l20.355-20.353
				c1.772-1.772,4.642-1.772,6.413,0l7.718,7.715c0.85,0.85,1.329,2.002,1.329,3.207c0,1.202-0.478,2.356-1.329,3.207L159.65,56.097
				v18.773c0,1.293-0.552,2.525-1.516,3.384C157.298,79.002,156.222,79.406,155.115,79.406z M149.226,69.972
				c0.446,0,0.898,0.006,1.354,0.021V54.219c0-1.202,0.478-2.356,1.329-3.207l14.24-14.241l-1.304-1.302l-16.107,16.107v18.398
				C148.901,69.972,149.063,69.972,149.226,69.972z"/>
		</g>
		<g>
			<path fill="#161616" d="M197.578,173.778h-97.284c-2.321,0-4.268-1.751-4.51-4.06l-2.624-24.927
				c-0.134-1.278,0.279-2.554,1.14-3.511c0.859-0.954,2.085-1.5,3.37-1.5h102.531c1.286,0,2.511,0.546,3.37,1.5
				c0.861,0.957,1.274,2.232,1.14,3.511l-2.624,24.927C201.846,172.027,199.899,173.778,197.578,173.778z M104.378,164.708h89.116
				l1.67-15.856h-92.456L104.378,164.708z"/>
		</g>
		<g>
			<path fill="#161616" d="M186.874,275.479h-40.609c-2.505,0-4.535-2.031-4.535-4.535s2.03-4.535,4.535-4.535h36.525l1.9-18.047
				h-71.509l1.9,18.047h10.261c2.505,0,4.535,2.031,4.535,4.535s-2.03,4.535-4.535,4.535h-14.344c-2.321,0-4.268-1.751-4.51-4.06
				l-2.854-27.118c-0.134-1.279,0.279-2.554,1.14-3.511c0.859-0.954,2.085-1.5,3.37-1.5h81.584c1.286,0,2.511,0.546,3.37,1.5
				c0.861,0.957,1.274,2.232,1.14,3.511l-2.854,27.118C191.143,273.728,189.195,275.479,186.874,275.479z"/>
		</g>
		<g>
			<path fill="#161616" d="M192.29,248.361h-86.707c-2.293,0-4.225-1.713-4.503-3.989l-9.071-74.583
				c-0.157-1.287,0.246-2.581,1.107-3.552c0.861-0.974,2.098-1.53,3.396-1.53h104.848c1.298,0,2.535,0.555,3.396,1.53
				c0.861,0.971,1.264,2.265,1.107,3.552l-9.071,74.583C196.515,246.649,194.583,248.361,192.29,248.361z M109.6,239.29h78.673
				l7.968-65.512h-94.608L109.6,239.29z"/>
		</g>
		<g>
			<path fill="#161616" d="M141.515,233.412c-5.321,0-10.215-1.769-13.875-5.427c-8.928-8.935-6.61-25.243,5.275-37.128
				c11.888-11.882,28.193-14.203,37.123-5.271c4.469,4.467,6.239,10.946,4.987,18.239c-1.153,6.717-4.797,13.423-10.261,18.886
				C157.749,229.73,149.187,233.412,141.515,233.412z M156.23,189.283c-5.312,0-11.75,2.838-16.901,7.987
				c-8.012,8.014-10.428,19.143-5.274,24.301c5.161,5.161,16.287,2.743,24.295-5.274c0.001,0,0.001,0,0.001,0
				c4.149-4.149,6.896-9.124,7.735-14.008c0.74-4.308-0.134-7.964-2.461-10.29C161.784,190.16,159.181,189.283,156.23,189.283z"/>
		</g>
		<g>
			<path fill="#161616" d="M132.777,226.644c-2.439,0-4.454-1.94-4.531-4.394c-0.077-2.504,1.89-4.597,4.394-4.674l1.329-0.035
				c7.147-0.174,10.106-0.245,11.412-11.964c0.741-6.658,3.245-11.64,7.439-14.808c5.756-4.343,12.313-3.387,13.044-3.274
				c2.47,0.416,4.137,2.755,3.722,5.223c-0.412,2.457-2.731,4.122-5.179,3.729c-0.157-0.018-3.54-0.434-6.189,1.612
				c-2.086,1.615-3.372,4.482-3.822,8.522c-2.184,19.591-12.602,19.845-20.209,20.028l-1.267,0.033
				C132.873,226.644,132.825,226.644,132.777,226.644z"/>
		</g>
		<g>
			<path fill="#161616" d="M76.1,187.013c1.624,1.624,1.622,4.258,0,5.879l0,0c-1.624,1.627-4.255,1.627-5.879,0l-4.634-4.633
				c-1.624-1.624-1.624-4.255,0-5.879l0,0c1.623-1.621,4.256-1.624,5.881,0L76.1,187.013z"/>
		</g>
		<g>
			<path fill="#161616" d="M70.22,210.374c1.624-1.624,4.258-1.621,5.879,0l0,0c1.627,1.624,1.627,4.255,0,5.879l-4.633,4.636
				c-1.624,1.624-4.255,1.624-5.879,0l0,0c-1.621-1.624-1.624-4.258,0-5.882L70.22,210.374z"/>
		</g>
		<g>
			<path fill="#161616" d="M223.9,187.013c-1.624,1.624-1.622,4.258,0,5.879l0,0c1.624,1.627,4.255,1.627,5.879,0l4.635-4.633
				c1.624-1.624,1.624-4.255,0-5.879l0,0c-1.623-1.621-4.257-1.624-5.881,0L223.9,187.013z"/>
		</g>
		<g>
			<path fill="#161616" d="M229.78,210.374c-1.624-1.624-4.258-1.621-5.879,0l0,0c-1.627,1.624-1.627,4.255,0,5.879l4.633,4.636
				c1.624,1.624,4.255,1.624,5.879,0l0,0c1.621-1.624,1.624-4.258,0-5.882L229.78,210.374z"/>
		</g>
	</g>
</g>
</svg>
