<?xml version="1.0" encoding="UTF-8" standalone="no"?>
<!-- Created with Inkscape (http://www.inkscape.org/) -->

<svg
   version="1.1"
   id="svg18"
   width="1600"
   height="1600"
   viewBox="0 0 1600 1600"
   sodipodi:docname="vector61-184-01.eps"
   xmlns:inkscape="http://www.inkscape.org/namespaces/inkscape"
   xmlns:sodipodi="http://sodipodi.sourceforge.net/DTD/sodipodi-0.dtd"
   xmlns="http://www.w3.org/2000/svg"
   xmlns:svg="http://www.w3.org/2000/svg">
  <defs
     id="defs22" />
  <sodipodi:namedview
     id="namedview20"
     pagecolor="#ffffff"
     bordercolor="#000000"
     borderopacity="0.25"
     inkscape:showpageshadow="2"
     inkscape:pageopacity="0.0"
     inkscape:pagecheckerboard="0"
     inkscape:deskcolor="#d1d1d1"
     showgrid="false"
     inkscape:lockguides="false" />
  <g
     id="g26"
     inkscape:groupmode="layer"
     inkscape:label="Page 1"
     transform="matrix(1.3333333,0,0,-1.3333333,-1.3333333e-6,1600)"
     style="display:inline">
    <g
       id="g28"
       transform="matrix(0.13318535,0,0,0.13318535,-167.81354,-185.79354)"
       style="display:inline">
      <path
         d="m 10270,5900 c 0,-2488.05 -2016.95,-4505 -4505,-4505 -2488.04,0 -4505,2016.95 -4505,4505 0,2488.04 2016.96,4505 4505,4505 2488.05,0 4505,-2016.96 4505,-4505"
         style="fill:#f19528;fill-opacity:1;fill-rule:nonzero;stroke:none"
         id="path30"
         inkscape:label="circle" />
      <path
         d="M 8590.55,8400.26 10022,7377.6 c 0,0 1438.7,-3949.83 -2881.65,-5768.7 L 4789.32,3269.18 8590.55,8400.26"
         style="fill:#d87c0e;fill-opacity:1;fill-rule:nonzero;stroke:none"
         id="path32"
         inkscape:label="shadow" />
      <path
         d="m 8460.56,8520.35 -0.01,0.01 c -310.58,232.42 -749.3,160.81 -974.92,-159.14 L 5034.82,4885.71 3630.31,5936.79 c -310.58,232.43 -749.29,160.81 -974.91,-159.14 h -0.01 C 2429.77,5457.7 2499.29,5005.74 2809.87,4773.32 L 4779.08,3299.65 v 0 c 310.59,-232.43 749.3,-160.82 974.92,159.14 v 0 l 2861.03,4057.23 c 225.62,319.96 156.1,771.9 -154.47,1004.33"
         style="display:inline;opacity:1;fill:#ffffff;fill-opacity:1;fill-rule:nonzero;stroke:none;stroke-width:0.9975;stroke-dasharray:none"
         id="path34"
         inkscape:label="checkmark" />
    </g>
  </g>
</svg>
