<svg xmlns="http://www.w3.org/2000/svg" viewBox="0 0 498.93 150"><title>모라고라02_가로</title><g id="Layer_2" data-name="Layer 2"><g id="Layer_1-2" data-name="Layer 1"><path d="M157.4,90.93V70.45h84.46V26.27a19.86,19.86,0,0,0-19.8-19.8H154.81A19.86,19.86,0,0,0,135,26.27v2.6h84.45V48.06H135V93.52a19.86,19.86,0,0,0,19.8,19.8h67.25a19.86,19.86,0,0,0,19.8-19.8V90.93H157.4Z"/><path d="M414.47,90.93V70.45h84.46V26.27a19.86,19.86,0,0,0-19.8-19.8H411.88a19.86,19.86,0,0,0-19.8,19.8v2.6h84.45V48.06H392.08V93.52a19.86,19.86,0,0,0,19.8,19.8h67.25a19.86,19.86,0,0,0,19.8-19.8V90.93H414.47Z"/><path d="M327.84,103.77c-.33-.55-.64-1.11-.91-1.68C327.2,102.66,327.51,103.22,327.84,103.77Z"/><path d="M326.93,102.09a19.69,19.69,0,0,1-1.07-2.7A19.69,19.69,0,0,0,326.93,102.09Z"/><path d="M336.2,111.36a20,20,0,0,1-4-2.58A20,20,0,0,0,336.2,111.36Z"/><path d="M338.89,112.43a19.07,19.07,0,0,1-2.69-1.07A19.07,19.07,0,0,0,338.89,112.43Z"/><path d="M325.37,97.5c-.13-.64-.23-1.3-.3-2C325.14,96.2,325.24,96.86,325.37,97.5Z"/><path d="M325,93.49v0a19.24,19.24,0,0,0,.1,2c.07.66.17,1.32.3,2s.3,1.27.49,1.89a19.69,19.69,0,0,0,1.07,2.7c.27.57.58,1.13.91,1.68a20.14,20.14,0,0,0,8.36,7.59,19.07,19.07,0,0,0,2.69,1.07,19.68,19.68,0,0,0,5.87.89h2.6V93.49H325Z"/><path d="M350.59,6.47H283.34a19.85,19.85,0,0,0-19.79,19.8v2.6H348V48.06H325V66.65a19.64,19.64,0,0,0,1.29,7,19.86,19.86,0,0,0,18.5,12.8h2.6v-16h23V26.27A19.86,19.86,0,0,0,350.59,6.47Z"/><path d="M59.9,20.86l39,39-39,39-39-39,39-39M47.44,5.14,5.14,47.44a17.67,17.67,0,0,0,0,24.91l42.3,42.31a17.67,17.67,0,0,0,24.91,0l42.31-42.31a17.67,17.67,0,0,0,0-24.91L72.35,5.14a17.67,17.67,0,0,0-24.91,0Z"/><circle cx="42.19" cy="60.7" r="4.27"/><circle cx="61.1" cy="41.79" r="4.27"/><ellipse cx="67.95" cy="67.54" rx="4.27" ry="7.97" transform="translate(-27.86 67.83) rotate(-45)"/><path d="M28,150h-2.9V131.41L18.92,150H15.29L9.08,131.41V150H6.17V128h4.59l6.34,19.12L23.45,128H28Z"/><path d="M95.91,147.43A2.44,2.44,0,0,1,93.34,150H79.53A2.44,2.44,0,0,1,77,147.43V130.54A2.44,2.44,0,0,1,79.53,128H93.34a2.44,2.44,0,0,1,2.57,2.57Zm-3.35,0c.3,0,.44-.15.44-.45V131c0-.3-.14-.45-.44-.45H80.31c-.3,0-.44.15-.44.45v16c0,.3.14.45.44.45Z"/><path d="M161.47,150h-3l-4.86-9.23h-5.85V150h-2.9V128H157.7a2.44,2.44,0,0,1,2.57,2.57v7.66a2.44,2.44,0,0,1-2.57,2.57h-1.09Zm-4.61-11.8a.45.45,0,0,0,.36-.14.49.49,0,0,0,.14-.36v-6.65a.53.53,0,0,0-.14-.37.49.49,0,0,0-.36-.14h-9.12v7.66Z"/><path d="M228,150h-3.13l-2.16-5.79H212.63L210.48,150h-3.13l8.5-22h3.63Zm-6.24-8.36-4.08-11-4.08,11Z"/><path d="M293.15,147.43a2.45,2.45,0,0,1-2.58,2.57h-13a2.45,2.45,0,0,1-2.58-2.57V130.54a2.45,2.45,0,0,1,2.58-2.57h13a2.45,2.45,0,0,1,2.58,2.57v5.17h-2.91V131a.4.4,0,0,0-.45-.45H278.33a.4.4,0,0,0-.45.45v16a.4.4,0,0,0,.45.45h11.46a.4.4,0,0,0,.45-.45v-6.46h-6.35V138h9.26Z"/><path d="M360.69,147.43a2.44,2.44,0,0,1-2.57,2.57H344.31a2.45,2.45,0,0,1-2.58-2.57V130.54a2.45,2.45,0,0,1,2.58-2.57h13.81a2.44,2.44,0,0,1,2.57,2.57Zm-3.36,0a.4.4,0,0,0,.45-.45V131a.4.4,0,0,0-.45-.45H345.09a.4.4,0,0,0-.45.45v16a.4.4,0,0,0,.45.45Z"/><path d="M426.25,150h-3l-4.87-9.23h-5.84V150h-2.91V128h12.86a2.44,2.44,0,0,1,2.57,2.57v7.66a2.44,2.44,0,0,1-2.57,2.57h-1.09Zm-4.62-11.8a.48.48,0,0,0,.51-.5v-6.65a.48.48,0,0,0-.51-.51h-9.11v7.66Z"/><path d="M492.76,150h-3.14l-2.15-5.79H477.41L475.25,150h-3.13l8.5-22h3.64Zm-6.24-8.36-4.08-11-4.08,11Z"/></g></g></svg>